<?xml version="1.0" encoding="utf-8"?>
<!-- Generator: Adobe Adobe Illustrator 29.2.0, SVG Export Plug-In . SVG Version: 6.00 Build 0)  -->
<svg version="1.1" id="Layer_1" xmlns="http://www.w3.org/2000/svg" xmlns:xlink="http://www.w3.org/1999/xlink" x="0px" y="0px"
	 width="1000px" height="1000px" viewBox="0 0 1000 1000" style="enable-background:new 0 0 1000 1000;" xml:space="preserve">
<style type="text/css">
	.st0{fill:#FFFFFF;}
	.st1{fill:#11BBED;}
</style>
<g>
	<rect x="-4.96" y="-4.96" width="1009.91" height="1009.91"/>
</g>
<path class="st0" d="M242.49,540.09c-4.96,0-9.62-0.99-13.99-2.96c-4.37-1.97-8.2-4.7-11.5-8.17c-3.3-3.48-5.89-7.52-7.76-12.13
	c-1.87-4.61-2.8-9.54-2.8-14.78c0-5.24,0.93-10.17,2.8-14.78c1.87-4.61,4.45-8.65,7.76-12.13c3.3-3.48,7.13-6.2,11.5-8.17
	c4.37-1.97,9.03-2.96,13.99-2.96c5.94,0,11.41,1.38,16.4,4.14c5,2.76,9.13,6.43,12.42,11.01l-7.81,4.19
	c-2.45-3.22-5.53-5.77-9.25-7.68s-7.64-2.86-11.76-2.86c-3.81,0-7.36,0.77-10.66,2.31c-3.3,1.54-6.19,3.65-8.67,6.34
	c-2.48,2.69-4.42,5.8-5.82,9.33c-1.4,3.53-2.09,7.28-2.09,11.27c0,4.02,0.71,7.79,2.12,11.32c1.42,3.53,3.37,6.64,5.87,9.33
	c2.5,2.69,5.4,4.8,8.7,6.32c3.3,1.52,6.82,2.28,10.56,2.28c4.26,0,8.22-0.97,11.87-2.91c3.65-1.94,6.7-4.48,9.14-7.62l7.81,4.24
	c-3.28,4.58-7.42,8.24-12.42,10.98C253.89,538.71,248.43,540.09,242.49,540.09z"/>
<path class="st0" d="M321.14,486.32h8.8v52.4h-8.8l-0.37-8.86c-1.64,3.04-3.9,5.5-6.78,7.39c-2.88,1.89-6.32,2.83-10.3,2.83
	c-3.84,0-7.44-0.73-10.8-2.17c-3.35-1.45-6.31-3.46-8.88-6.03s-4.57-5.53-6-8.88c-1.43-3.35-2.15-6.97-2.15-10.85
	c0-3.74,0.7-7.26,2.1-10.59c1.4-3.32,3.34-6.22,5.84-8.72c2.5-2.5,5.39-4.45,8.67-5.87c3.28-1.42,6.81-2.12,10.58-2.12
	c4.12,0,7.74,0.97,10.85,2.91c3.11,1.94,5.62,4.45,7.54,7.52L321.14,486.32z M303.53,531.55c3.46,0,6.46-0.85,8.99-2.54
	c2.53-1.69,4.49-3.99,5.87-6.89c1.38-2.9,2.07-6.09,2.07-9.59c0-3.56-0.7-6.79-2.09-9.67c-1.4-2.88-3.36-5.17-5.9-6.87
	c-2.53-1.69-5.51-2.54-8.94-2.54c-3.46,0-6.6,0.86-9.43,2.57c-2.83,1.71-5.07,4.01-6.73,6.89c-1.66,2.88-2.49,6.09-2.49,9.62
	c0,3.53,0.86,6.73,2.57,9.61c1.71,2.88,3.98,5.17,6.81,6.87C297.09,530.7,300.18,531.55,303.53,531.55z"/>
<path class="st0" d="M356.41,539.72c-2.83-0.11-5.58-0.64-8.25-1.6c-2.67-0.96-5.01-2.27-7.02-3.93c-2.01-1.66-3.47-3.57-4.38-5.74
	l7.55-3.25c0.52,1.19,1.47,2.31,2.83,3.35c1.36,1.05,2.93,1.89,4.71,2.52c1.78,0.63,3.58,0.94,5.4,0.94c1.92,0,3.72-0.3,5.4-0.89
	c1.68-0.59,3.05-1.48,4.12-2.65c1.06-1.17,1.6-2.58,1.6-4.22c0-1.75-0.59-3.12-1.76-4.11c-1.17-1-2.64-1.78-4.4-2.36
	c-1.77-0.58-3.56-1.13-5.37-1.65c-3.6-0.91-6.81-2-9.64-3.28c-2.83-1.27-5.06-2.9-6.68-4.87c-1.62-1.97-2.44-4.5-2.44-7.57
	c0-3.25,0.9-6.06,2.7-8.43c1.8-2.38,4.16-4.21,7.1-5.5c2.93-1.29,6.08-1.94,9.43-1.94c4.23,0,8.09,0.91,11.58,2.72
	c3.49,1.82,6.09,4.28,7.81,7.39l-7.07,4.14c-0.59-1.26-1.5-2.37-2.72-3.33c-1.22-0.96-2.62-1.72-4.19-2.28
	c-1.57-0.56-3.18-0.86-4.82-0.89c-2.03-0.07-3.92,0.19-5.69,0.78c-1.76,0.6-3.18,1.49-4.24,2.7c-1.07,1.2-1.6,2.7-1.6,4.48
	c0,1.75,0.57,3.08,1.7,3.98c1.14,0.91,2.62,1.63,4.45,2.18c1.83,0.54,3.83,1.16,6,1.86c3.18,1.01,6.15,2.18,8.91,3.51
	c2.76,1.33,4.99,2.98,6.68,4.98c1.69,1.99,2.52,4.45,2.49,7.39c0,3.22-0.96,6.02-2.88,8.41c-1.92,2.39-4.41,4.22-7.47,5.48
	C363.17,539.3,359.9,539.86,356.41,539.72z"/>
<path class="st0" d="M412.74,495.13h-11.9l-0.05,43.6h-8.81l0.05-43.6h-9.01v-8.81h9.01l-0.05-16.45h8.81l0.05,16.45h11.9V495.13z"
	/>
<path class="st0" d="M422.11,538.72v-78.6h8.81v78.6H422.11z"/>
<path class="st0" d="M466.08,540.09c-4.82,0-9.21-1.24-13.18-3.72c-3.97-2.48-7.13-5.81-9.48-9.98c-2.36-4.17-3.54-8.79-3.54-13.86
	c0-3.84,0.68-7.43,2.04-10.77c1.36-3.34,3.24-6.27,5.63-8.8c2.39-2.53,5.18-4.52,8.36-5.95c3.18-1.43,6.57-2.15,10.17-2.15
	c3.95,0,7.57,0.79,10.87,2.38c3.3,1.59,6.13,3.8,8.49,6.63c2.36,2.83,4.12,6.11,5.29,9.85c1.17,3.74,1.6,7.74,1.28,12h-42.76
	c0.42,2.97,1.4,5.61,2.93,7.94c1.54,2.32,3.5,4.16,5.9,5.53c2.39,1.36,5.06,2.06,7.99,2.1c3.14,0,5.99-0.81,8.54-2.44
	c2.55-1.63,4.61-3.85,6.18-6.68l8.96,2.09c-2.09,4.65-5.26,8.45-9.48,11.4C476.05,538.61,471.32,540.09,466.08,540.09z M449,508.8
	h34.17c-0.28-2.94-1.22-5.62-2.83-8.04c-1.61-2.43-3.65-4.38-6.13-5.84c-2.48-1.47-5.19-2.2-8.12-2.2c-2.94,0-5.63,0.72-8.07,2.15
	c-2.45,1.43-4.46,3.36-6.05,5.79S449.38,505.8,449,508.8z"/>
<path class="st1" d="M500.4,538.72v-73.36h25.31c3.63,0,6.94,0.74,9.93,2.23c2.99,1.48,5.35,3.64,7.1,6.47
	c1.75,2.83,2.62,6.22,2.62,10.17c0,2.13-0.36,4.18-1.07,6.16c-0.72,1.97-1.69,3.67-2.94,5.08c-1.24,1.41-2.65,2.37-4.22,2.85
	c2.2,0.56,4.07,1.55,5.61,2.96s2.79,3.07,3.75,4.95c0.96,1.89,1.65,3.86,2.07,5.92c0.42,2.06,0.63,4.05,0.63,5.97
	c0,4.05-0.92,7.62-2.75,10.72c-1.83,3.09-4.29,5.51-7.36,7.26c-3.08,1.75-6.46,2.62-10.17,2.62H500.4z M509.2,495.02h15.67
	c3.21,0,5.97-0.95,8.25-2.85c2.29-1.91,3.43-4.57,3.43-7.99c0-3.7-1.14-6.47-3.43-8.31c-2.29-1.83-5.04-2.75-8.25-2.75H509.2V495.02
	z M509.2,530.97h18.92c2.41,0,4.6-0.62,6.58-1.86c1.97-1.24,3.55-2.94,4.74-5.11c1.19-2.17,1.78-4.61,1.78-7.34
	c0-2.41-0.6-4.69-1.78-6.84c-1.19-2.15-2.77-3.89-4.74-5.21c-1.97-1.33-4.17-1.99-6.58-1.99H509.2V530.97z"/>
<path class="st1" d="M581.19,484.86c-3.32,0-6.38,0.73-9.22,2.19c-2.84,1.43-5.17,3.39-7.03,5.83v-6.56h-8.79v52.42h8.79v-30.67
	c0-2.66,0.65-5.05,1.96-7.23c1.28-2.16,3.01-3.87,5.2-5.15c2.19-1.28,4.6-1.91,7.21-1.91c1.08,0,2.21,0.15,3.34,0.45v-9.32
	C582.17,484.88,581.69,484.86,581.19,484.86z"/>
<polygon class="st1" points="589.45,486.31 589.45,535.62 589.45,538.73 598.24,538.73 598.24,486.31 590.73,486.31 "/>
<path class="st1" d="M593.94,477.77c1.36,0,2.51-0.45,3.44-1.36c0.93-0.9,1.38-2.03,1.38-3.42c0-1.36-0.48-2.49-1.41-3.39
	c-0.95-0.9-2.11-1.36-3.47-1.36c-1.36,0-2.51,0.45-3.47,1.36c-0.93,0.9-1.41,2.03-1.41,3.39c0,1.38,0.48,2.51,1.41,3.42
	C591.38,477.32,592.56,477.77,593.94,477.77z"/>
<path class="st1" d="M659.86,460.12h8.8v78.6h-8.8v-8.91c-1.78,3.07-4.17,5.55-7.18,7.44c-3,1.89-6.53,2.83-10.59,2.83
	c-3.81,0-7.37-0.72-10.69-2.15c-3.32-1.43-6.24-3.41-8.78-5.95c-2.53-2.53-4.52-5.46-5.95-8.78c-1.43-3.32-2.15-6.88-2.15-10.69
	c0-3.81,0.71-7.38,2.15-10.72c1.43-3.34,3.41-6.27,5.95-8.81c2.53-2.53,5.46-4.51,8.78-5.95c3.32-1.43,6.88-2.15,10.69-2.15
	c4.05,0,7.58,0.94,10.59,2.83c3,1.89,5.4,4.37,7.18,7.44V460.12z M642.2,531.55c3.46,0,6.45-0.85,8.99-2.54
	c2.53-1.69,4.49-3.99,5.87-6.89c1.38-2.9,2.07-6.09,2.07-9.59c0-3.56-0.7-6.79-2.1-9.67c-1.4-2.88-3.36-5.17-5.89-6.87
	c-2.53-1.69-5.51-2.54-8.94-2.54c-3.46,0-6.6,0.86-9.41,2.57c-2.81,1.71-5.06,4.01-6.73,6.89c-1.68,2.88-2.52,6.09-2.52,9.62
	c0,3.53,0.86,6.73,2.57,9.61c1.71,2.88,3.98,5.17,6.81,6.87C635.75,530.7,638.85,531.55,642.2,531.55z"/>
<path class="st1" d="M721.69,486.32h8.8v54.08c0,3.46-0.74,6.68-2.23,9.67s-3.49,5.59-6,7.81c-2.52,2.22-5.38,3.95-8.59,5.19
	c-3.21,1.24-6.57,1.86-10.06,1.86c-3.63,0-7.14-0.81-10.53-2.44c-3.39-1.62-6.35-3.79-8.88-6.5c-2.53-2.71-4.36-5.74-5.48-9.09
	l8.07-3.67c0.66,2.41,1.86,4.58,3.59,6.52c1.73,1.94,3.76,3.48,6.08,4.61c2.32,1.14,4.71,1.7,7.15,1.7c2.31,0,4.53-0.4,6.68-1.2
	c2.15-0.8,4.09-1.91,5.82-3.33c1.73-1.42,3.09-3.07,4.09-4.98c1-1.91,1.49-3.96,1.49-6.16v-10.43c-1.78,3-4.13,5.44-7.05,7.31
	c-2.92,1.87-6.31,2.8-10.19,2.8c-3.7,0-7.18-0.72-10.43-2.15c-3.25-1.43-6.1-3.41-8.54-5.95c-2.45-2.53-4.37-5.46-5.76-8.78
	c-1.4-3.32-2.09-6.88-2.09-10.69c0-3.81,0.7-7.38,2.09-10.72c1.4-3.34,3.32-6.27,5.76-8.81c2.45-2.53,5.29-4.51,8.54-5.95
	c3.25-1.43,6.72-2.15,10.43-2.15c3.88,0,7.27,0.92,10.19,2.78c2.92,1.85,5.27,4.3,7.05,7.34V486.32z M704.5,531.55
	c3.39,0,6.33-0.87,8.83-2.62c2.5-1.75,4.43-4.07,5.79-6.97c1.36-2.9,2.04-6.04,2.04-9.43c0-3.49-0.69-6.68-2.07-9.56
	c-1.38-2.88-3.32-5.19-5.82-6.92c-2.5-1.73-5.42-2.59-8.78-2.59c-3.28,0-6.29,0.86-9.01,2.57c-2.72,1.71-4.88,4.01-6.47,6.89
	s-2.38,6.09-2.38,9.62c0,3.53,0.81,6.73,2.44,9.61c1.62,2.88,3.79,5.17,6.5,6.87C698.27,530.7,701.25,531.55,704.5,531.55z"/>
<path class="st1" d="M765.45,540.09c-4.82,0-9.21-1.24-13.18-3.72c-3.97-2.48-7.13-5.81-9.48-9.98c-2.36-4.17-3.54-8.79-3.54-13.86
	c0-3.84,0.68-7.43,2.04-10.77c1.36-3.34,3.24-6.27,5.63-8.8c2.39-2.53,5.18-4.52,8.36-5.95c3.18-1.43,6.57-2.15,10.17-2.15
	c3.95,0,7.57,0.79,10.87,2.38c3.3,1.59,6.13,3.8,8.49,6.63c2.36,2.83,4.12,6.11,5.29,9.85c1.17,3.74,1.6,7.74,1.28,12h-42.76
	c0.42,2.97,1.4,5.61,2.93,7.94c1.54,2.32,3.5,4.16,5.9,5.53c2.39,1.36,5.05,2.06,7.99,2.1c3.14,0,5.99-0.81,8.54-2.44
	c2.55-1.63,4.61-3.85,6.18-6.68l8.96,2.09c-2.09,4.65-5.26,8.45-9.48,11.4C775.42,538.61,770.69,540.09,765.45,540.09z
	 M748.36,508.8h34.17c-0.28-2.94-1.22-5.62-2.83-8.04c-1.61-2.43-3.65-4.38-6.13-5.84c-2.48-1.47-5.19-2.2-8.12-2.2
	c-2.94,0-5.63,0.72-8.07,2.15c-2.45,1.43-4.46,3.36-6.05,5.79S748.75,505.8,748.36,508.8z"/>
<path class="st0" d="M442.66,488.36c-0.16,0.18-0.31,0.34-0.47,0.51c10.96-55.63,60.02-97.6,118.89-97.6
	c35.97,0,68.27,15.66,90.46,40.55c-17.69-14.16-40.13-22.64-64.53-22.64c-47.91,0-88.2,32.57-99.9,76.79
	c-2.17-1.92-4.61-3.51-7.25-4.79c-4.21-2.04-8.84-3.06-13.78-3.06c-4.54,0-8.88,0.94-12.93,2.75
	C449.2,482.68,445.66,485.18,442.66,488.36z"/>
<path class="st1" d="M555.49,438.23c-13.98,0-27.09,3.78-38.36,10.38c16.91-17.74,40.76-28.81,67.2-28.81
	c27.31,0,51.87,11.81,68.83,30.62v30c-3.33-1.48-7.05-2.21-11.07-2.21c-4.7,0-9.19,0.89-13.33,2.68c-1.39,0.6-2.73,1.28-4,2.04
	C612.82,456.57,586.29,438.23,555.49,438.23z"/>
<g>
	<path class="st0" d="M636.39,571.98l4.47,2.41c-1.35,1.89-3.06,3.39-5.14,4.53c-2.08,1.13-4.32,1.7-6.75,1.7
		c-2.74,0-5.24-0.7-7.49-2.12c-2.25-1.41-4.05-3.3-5.39-5.67c-1.34-2.37-2.01-5-2.01-7.88c0-2.18,0.39-4.22,1.16-6.12
		c0.77-1.9,1.84-3.56,3.2-5.01c1.36-1.44,2.94-2.57,4.75-3.38c1.81-0.81,3.73-1.22,5.78-1.22c2.42,0,4.67,0.57,6.75,1.7
		c2.07,1.13,3.79,2.65,5.14,4.56l-4.47,2.41c-0.95-1.17-2.09-2.08-3.4-2.71c-1.31-0.64-2.65-0.95-4.02-0.95
		c-1.85,0-3.52,0.49-5.02,1.47c-1.5,0.98-2.69,2.29-3.56,3.92c-0.87,1.63-1.31,3.41-1.31,5.33c0,1.93,0.44,3.7,1.32,5.32
		c0.88,1.62,2.08,2.92,3.57,3.89c1.5,0.97,3.16,1.46,4.99,1.46c1.47,0,2.85-0.34,4.14-1.01C634.4,573.93,635.5,573.06,636.39,571.98
		z"/>
	<path class="st0" d="M645.03,579.85l10.9-14.95L645.09,550h6.17l7.77,10.6l7.74-10.6h6.16l-10.84,14.89l10.9,14.95h-6.17
		l-7.8-10.72l-7.83,10.72H645.03z"/>
</g>
</svg>
