<svg width="213" height="157" viewBox="0 0 213 157" fill="none" xmlns="http://www.w3.org/2000/svg">
<path d="M108.481 84.9511C112.391 81.3971 115.724 77.2575 118.363 72.6803C120.92 68.0882 122.826 63.1628 124.026 58.0456C125.283 53.0657 125.935 47.9524 125.968 42.8164C126.025 37.6834 125.179 32.5804 123.467 27.7407C122.594 25.3042 121.374 23.0068 119.843 20.9199C118.28 18.7309 116.255 16.9127 113.911 15.5943C111.278 14.1518 108.239 13.6318 105.276 14.117C102.258 14.6919 99.4649 16.1105 97.2203 18.2083C96.1512 19.1635 95.1621 20.2045 94.2628 21.321C93.4369 22.4154 92.6688 23.5522 91.9618 24.7269C91.2789 25.8551 90.6702 27.0265 90.1395 28.2338L89.2597 30.0756L88.5723 31.8672C86.9045 36.4591 85.687 41.2022 84.9371 46.0297C84.137 50.75 84.0094 55.5598 84.5581 60.3158C85.0826 64.8263 86.2587 69.2368 88.0497 73.4096L88.6757 74.9238L89.435 76.3661C89.9257 77.3153 90.4351 78.3048 90.9349 79.2105C91.9876 81.0256 93.1336 82.785 94.3685 84.4815C95.0891 85.4611 95.8625 86.4063 96.6359 87.3515C95.6683 87.9292 94.7439 88.3887 93.6925 88.976C89.7357 90.9837 85.5269 92.4501 81.1792 93.3356C77.0063 94.1302 72.7366 94.2836 68.5174 93.7906C60.4876 92.6018 52.8317 89.6085 46.125 85.0356C39.8437 80.7461 34.1909 75.602 29.3297 69.7518C24.8598 64.4095 20.8289 58.7147 17.2763 52.723C14.1056 47.504 11.2868 42.0792 8.83849 36.4848C5.20655 28.3015 2.93829 19.579 2.12365 10.6631C1.65981 4.24586 2.17043 0.534808 1.79787 0.619829C1.45036 1.45227 1.24513 2.33716 1.19072 3.23758C0.837217 5.75516 0.677748 8.29619 0.713716 10.8382C1.00045 19.9961 2.9142 29.03 6.36552 37.5175C8.65924 43.3315 11.3526 48.9798 14.4264 54.4218C17.8919 60.6784 21.8637 66.6409 26.302 72.2496C31.2341 78.5006 37.0269 84.0214 43.5077 88.6475C50.6515 93.7644 58.8787 97.1657 67.5503 98.5873C72.2682 99.2367 77.0582 99.153 81.7506 98.3389C86.6405 97.4344 91.3821 95.859 95.8411 93.6576C97.3878 92.9207 98.8913 92.0966 100.345 91.1895C103.615 94.5474 107.182 97.6039 111.001 100.322C121.223 107.467 132.444 113.065 144.3 116.935C152.872 119.799 161.661 121.967 170.582 123.419C180.453 125.104 190.477 125.72 200.481 125.257L203.593 124.987L201.156 126.709C198.586 128.631 196.21 130.63 193.966 132.557C190.045 136.02 186.394 139.779 183.046 143.799C177.319 150.683 174.781 155.602 175.366 156.017C175.951 156.431 179.646 152.456 185.807 146.528C188.939 143.579 192.678 140.122 197.076 136.605C199.279 134.824 201.623 133.027 204.097 131.258C205.355 130.378 206.626 129.483 207.928 128.612C208.586 128.169 209.197 127.816 210.12 127.101C211.352 126.198 212.255 124.917 212.691 123.452C212.906 122.663 212.956 121.838 212.839 121.029C212.737 120.396 212.552 119.779 212.29 119.194C211.879 118.341 211.379 117.535 210.797 116.788C209.908 115.573 208.994 114.389 208.124 113.214C206.343 110.883 204.602 108.661 202.931 106.544C199.538 102.373 196.383 98.7971 193.571 95.7486C188.085 89.8625 184.182 86.5564 183.578 87.0926C182.974 87.6288 185.715 91.9171 190.392 98.5327L198.701 110.043C200.269 112.204 201.901 114.467 203.596 116.832C204.438 118.01 205.312 119.212 206.185 120.415C206.211 120.446 206.243 120.472 206.279 120.49C205.061 120.36 203.333 120.231 200.86 120.146C191.237 119.72 181.652 118.663 172.168 116.98C163.616 115.371 155.191 113.149 146.958 110.331C135.718 106.567 125.076 101.213 115.354 94.4307C112.169 92.1451 109.168 89.6145 106.377 86.862C107.115 86.2539 107.852 85.6458 108.559 85.013L108.481 84.9511ZM100.176 79.7974C99.0607 78.31 98.0241 76.7649 97.0709 75.1685C96.6118 74.3714 96.1898 73.5277 95.7399 72.6871L95.0867 71.4308L94.539 70.1059C92.9591 66.5373 91.9254 62.7513 91.4725 58.875C90.9709 54.7734 91.0544 50.6214 91.7207 46.5434C92.3454 42.2008 93.3991 37.9307 94.8663 33.796L95.4395 32.244L96.106 30.7662C96.5394 29.7882 97.026 28.8346 97.5637 27.9097C98.0641 26.9607 98.6615 26.2412 99.2893 25.2917C99.9009 24.5178 100.576 23.7966 101.308 23.1356C102.458 21.8801 103.991 21.0399 105.668 20.746C107.345 20.4521 109.072 20.7209 110.58 21.5105C113.896 23.624 116.373 26.8246 117.589 30.564C119.088 34.6875 119.859 39.0407 119.865 43.4285C119.881 48.049 119.342 52.6547 118.26 57.1467C117.275 61.6767 115.657 66.0458 113.456 70.1259C111.174 74.1468 108.28 77.7875 104.877 80.917C104.149 81.609 103.39 82.2762 102.628 82.9154C101.761 81.8959 100.922 80.8732 100.058 79.7543" fill="#1B1B1B"/>
</svg>
