<svg width="160" height="90" viewBox="0 0 160 90" fill="none" xmlns="http://www.w3.org/2000/svg">
  <rect x="0.5" y="0.5" width="159" height="89" stroke="#3D8BF4" />
  <rect width="6.16667" height="89" transform="translate(32 1)" fill="#3D8BF4" fill-opacity="0.1" />
  <g opacity="0.8">
    <rect width="6.16667" height="89" transform="translate(40.1667 1)" fill="#3D8BF4" fill-opacity="0.1" />
  </g>
  <rect width="6.16667" height="89" transform="translate(48.3333 1)" fill="#3D8BF4" fill-opacity="0.1" />
  <rect width="6.16667" height="89" transform="translate(56.5 1)" fill="#3D8BF4" fill-opacity="0.1" />
  <rect width="6.16667" height="89" transform="translate(64.6667 1)" fill="#3D8BF4" fill-opacity="0.1" />
  <rect width="6.16667" height="89" transform="translate(72.8333 1)" fill="#3D8BF4" fill-opacity="0.1" />
  <rect width="6.16667" height="89" transform="translate(81 1)" fill="#3D8BF4" fill-opacity="0.1" />
  <rect width="6.16667" height="89" transform="translate(89.1666 1)" fill="#3D8BF4" fill-opacity="0.1" />
  <rect width="6.16667" height="89" transform="translate(97.3333 1)" fill="#3D8BF4" fill-opacity="0.1" />
  <rect width="6.16667" height="89" transform="translate(105.5 1)" fill="#3D8BF4" fill-opacity="0.1" />
  <rect width="6.16667" height="89" transform="translate(113.667 1)" fill="#3D8BF4" fill-opacity="0.1" />
  <rect width="6.16667" height="89" transform="translate(121.833 1)" fill="#3D8BF4" fill-opacity="0.1" />
  <rect x="32" y="7" width="96" height="41" fill="#3D8BF4" fill-opacity="0.3" />
  <rect x="32" y="52" width="47" height="32" fill="#3D8BF4" fill-opacity="0.3" />
  <rect x="81" y="52" width="47" height="32" fill="#3D8BF4" fill-opacity="0.3" />
</svg>