<svg width="248" height="85" viewBox="0 0 248 85" fill="none" xmlns="http://www.w3.org/2000/svg">
<rect x="2.5" y="2.5" width="243" height="80" stroke="#3D8BF4"/>
<rect x="2" y="2" width="121" height="39.5" fill="#3D8BF4" fill-opacity="0.07"/>
<rect x="2.5" y="2.5" width="120" height="38.5" stroke="#3D8BF4" stroke-opacity="0.25"/>
<rect x="125" y="2" width="121" height="39.5" fill="#3D8BF4" fill-opacity="0.07"/>
<rect x="125.5" y="2.5" width="120" height="38.5" stroke="#3D8BF4" stroke-opacity="0.25"/>
<rect x="2" y="43.5" width="121" height="39.5" fill="#3D8BF4" fill-opacity="0.07"/>
<rect x="2.5" y="44" width="120" height="38.5" stroke="#3D8BF4" stroke-opacity="0.25"/>
<rect x="125" y="43.5" width="121" height="39.5" fill="#3D8BF4" fill-opacity="0.07"/>
<rect x="125.5" y="44" width="120" height="38.5" stroke="#3D8BF4" stroke-opacity="0.25"/>
<rect x="243.5" y="0.5" width="4" height="4" fill="white"/>
<rect x="243.5" y="0.5" width="4" height="4" stroke="#3D8BF4"/>
<rect x="0.5" y="0.5" width="4" height="4" fill="white"/>
<rect x="0.5" y="0.5" width="4" height="4" stroke="#3D8BF4"/>
<rect x="0.5" y="80.5" width="4" height="4" fill="white"/>
<rect x="0.5" y="80.5" width="4" height="4" stroke="#3D8BF4"/>
<rect x="243.5" y="80.5" width="4" height="4" fill="white"/>
<rect x="243.5" y="80.5" width="4" height="4" stroke="#3D8BF4"/>
</svg>
