<svg width="42" height="42" viewBox="0 0 42 42" fill="none" xmlns="http://www.w3.org/2000/svg">
<path d="M13.25 6H23.75C32.5 6 36 9.5 36 18.25V28.75C36 37.5 32.5 41 23.75 41H13.25C4.5 41 1 37.5 1 28.75V18.25C1 9.5 4.5 6 13.25 6Z" stroke="#757575" stroke-linecap="round" stroke-linejoin="round"/>
<path d="M31.9 1H36.1C39.6 1 41 2.4 41 5.9V10.1C41 13.6 39.6 15 36.1 15H31.9C28.4 15 27 13.6 27 10.1V5.9C27 2.4 28.4 1 31.9 1Z" fill="white" stroke="#757575" stroke-linecap="round" stroke-linejoin="round"/>
<path d="M36 9L34 11L32 9" stroke="#757575" stroke-linecap="round" stroke-linejoin="round"/>
<path d="M34 5V11" stroke="#757575" stroke-linecap="round" stroke-linejoin="round"/>
<path d="M14.1957 22.2278V25.9944C14.1957 27.2684 14.6087 27.8046 15.0033 28.054C15.4357 28.3269 15.9565 28.3342 16.3265 28.3342C16.5473 28.3344 16.7269 28.5138 16.7269 28.7346C16.7268 28.9553 16.5472 29.1349 16.3265 29.135C15.9737 29.135 15.2285 29.1423 14.5765 28.7307C14.2672 28.5353 13.9983 28.2591 13.7953 27.8821C13.5923 28.2589 13.3243 28.5354 13.015 28.7307C12.3631 29.1422 11.6178 29.135 11.265 29.135C11.0443 29.1349 10.8648 28.9553 10.8646 28.7346C10.8646 28.5138 11.0442 28.3344 11.265 28.3342C11.635 28.3342 12.1559 28.3268 12.5883 28.054C12.9828 27.8046 13.3958 27.2683 13.3959 25.9944V22.2278H14.1957ZM16.3265 14.9583C16.5472 14.9584 16.7267 15.138 16.7269 15.3586C16.7269 15.5795 16.5473 15.7589 16.3265 15.759C15.9573 15.759 15.4417 15.7668 15.0121 16.053C14.6155 16.3174 14.1958 16.8913 14.1957 18.2502V22.2268H13.3959V18.2502C13.3957 16.8914 12.9761 16.3174 12.5795 16.053C12.1499 15.7668 11.6343 15.759 11.265 15.759C11.0442 15.7589 10.8646 15.5795 10.8646 15.3586C10.8649 15.138 11.0444 14.9584 11.265 14.9583C11.6185 14.9583 12.3683 14.951 13.0228 15.387C13.329 15.5911 13.5944 15.8778 13.7953 16.2678C13.9962 15.8776 14.2624 15.5912 14.5687 15.387C15.2234 14.951 15.9731 14.9583 16.3265 14.9583Z" fill="#757575"/>
<circle cx="21.0876" cy="28.4625" r="0.4" fill="#757575"/>
<circle cx="22.3877" cy="28.4625" r="0.4" fill="#757575"/>
<circle cx="23.6876" cy="28.4625" r="0.4" fill="#757575"/>
</svg>
