<?xml version="1.0" encoding="UTF-8"?>
<svg width="1200pt" height="1200pt" version="1.1" viewBox="0 0 1200 1200" xmlns="http://www.w3.org/2000/svg">
 <path d="m1160 240c-0.03125-26.512-10.578-51.93-29.324-70.676-18.746-18.746-44.164-29.293-70.676-29.324h-180v40h180c15.914 0 31.176 6.3203 42.426 17.574 11.254 11.25 17.574 26.512 17.574 42.426v280c0 15.914-6.3203 31.176-17.574 42.426-11.25 11.254-26.512 17.574-42.426 17.574h-63.602c-5.2461-0.10938-10.246-2.2617-13.934-6s-5.7734-8.7656-5.8164-14.016c-0.042969-5.25 1.9648-10.309 5.5898-14.105l10.238-10.262 0.003907 0.003906c3.8438-3.5625 6.2539-8.4102 6.7773-13.625 0.52344-5.2148-0.87891-10.441-3.9375-14.695-3.6016-4.25-8.8125-6.8086-14.375-7.0547-5.5664-0.24609-10.984 1.8398-14.945 5.7539l-80 80c-3.6641 3.7383-5.7188 8.7656-5.7188 14s2.0547 10.262 5.7188 14l80 80.102c5.0547 4.7734 12.23 6.5586 18.934 4.7109 6.7031-1.8438 11.953-7.0586 13.848-13.746 1.8906-6.6875 0.15625-13.879-4.582-18.965l-11.879-11.898v-0.003906c-3.6211-3.7969-5.625-8.8516-5.5938-14.098 0.035157-5.2461 2.1055-10.277 5.7773-14.027 3.668-3.75 8.6523-5.9258 13.895-6.0742h63.602c26.512-0.03125 51.93-10.578 70.676-29.324 18.746-18.746 29.293-44.164 29.324-70.676z"/>
 <path d="m40 960c0.03125 26.512 10.578 51.93 29.324 70.676 18.746 18.746 44.164 29.293 70.676 29.324h63.602c5.2578 0.097656 10.266 2.25 13.961 5.9922 3.6953 3.7422 5.7812 8.7773 5.8164 14.039 0.03125 5.2578-1.9922 10.32-5.6406 14.109l-11.801 11.801h0.003906c-4.7734 5.0508-6.5625 12.23-4.7148 18.934 1.8477 6.6992 7.0586 11.949 13.746 13.844s13.879 0.16016 18.969-4.5781l80-80c3.7344-3.6992 5.8398-8.7422 5.8398-14 0-5.2617-2.1055-10.301-5.8398-14l-80-80.102c-4-3.8633-9.4141-5.9062-14.969-5.6523-5.5547 0.25391-10.762 2.7812-14.395 6.9922-3.0664 4.25-4.4766 9.4766-3.9609 14.691 0.51562 5.2148 2.9219 10.062 6.7617 13.629l10.262 10.281c3.4844 3.8203 5.3828 8.8281 5.3086 14-0.078125 5.1719-2.1172 10.117-5.7148 13.84-3.5938 3.7188-8.4688 5.9297-13.633 6.1797h-63.602c-15.914 0-31.176-6.3203-42.426-17.574-11.254-11.25-17.574-26.512-17.574-42.426v-280c0-15.914 6.3203-31.176 17.574-42.426 11.25-11.254 26.512-17.574 42.426-17.574h180v-40h-180c-26.512 0.03125-51.93 10.578-70.676 29.324-18.746 18.746-29.293 44.164-29.324 70.676z"/>
 <path d="m360 1080c0 21.219 8.4297 41.566 23.43 56.57 15.004 15 35.352 23.43 56.57 23.43h320c21.219 0 41.566-8.4297 56.57-23.43 15-15.004 23.43-35.352 23.43-56.57v-80c0-21.219-8.4297-41.566-23.43-56.57-15.004-15-35.352-23.43-56.57-23.43h-320c-21.219 0-41.566 8.4297-56.57 23.43-15 15.004-23.43 35.352-23.43 56.57v39.398 0.60156 0.60156z"/>
 <path d="m203.66 140h-143.66c-7.1445 0-13.746 3.8125-17.32 10-3.5742 6.1875-3.5742 13.812 0 20 3.5742 6.1875 10.176 10 17.32 10h143.66c5.3047 0 10.391 2.1094 14.141 5.8594s5.8555 8.8359 5.8555 14.141-2.1055 10.391-5.8555 14.141l-11.801 11.801c-3.7227 3.707-5.8164 8.7461-5.8164 14s2.0938 10.289 5.8164 14c3.7461 3.7188 8.8125 5.8047 14.09 5.8047s10.344-2.0859 14.09-5.8047l80-80c3.6094-3.5664 5.6953-8.3906 5.8203-13.461v-0.96094c-0.10156-5.082-2.1914-9.918-5.8203-13.48l-80-80c-5.0469-4.7539-12.211-6.5312-18.898-4.6875-6.6836 1.8438-11.926 7.043-13.82 13.715-1.8984 6.6719-0.17578 13.848 4.5391 18.934l11.879 11.898c3.7383 3.7617 5.832 8.8516 5.8164 14.152-0.011718 5.3008-2.1328 10.383-5.8867 14.121-3.7578 3.7422-8.8477 5.8359-14.148 5.8281z"/>
 <path d="m760 40h-320c-21.219 0-41.566 8.4297-56.57 23.43-15 15.004-23.43 35.352-23.43 56.57v39.02 0.98047 0.98047 39.02c0 21.219 8.4297 41.566 23.43 56.57 15.004 15 35.352 23.43 56.57 23.43h320c21.219 0 41.566-8.4297 56.57-23.43 15-15.004 23.43-35.352 23.43-56.57v-80c0-21.219-8.4297-41.566-23.43-56.57-15.004-15-35.352-23.43-56.57-23.43z"/>
 <path d="m440 720h320c21.219 0 41.566-8.4297 56.57-23.43 15-15.004 23.43-35.352 23.43-56.57v-39.398-0.60156-0.60156-39.398c0-21.219-8.4297-41.566-23.43-56.57-15.004-15-35.352-23.43-56.57-23.43h-320c-21.219 0-41.566 8.4297-56.57 23.43-15 15.004-23.43 35.352-23.43 56.57v80c0 21.219 8.4297 41.566 23.43 56.57 15.004 15 35.352 23.43 56.57 23.43z"/>
</svg>
