<?xml version="1.0" encoding="UTF-8"?>
<svg width="100pt" height="100pt" version="1.1" viewBox="0 0 100 100" xmlns="http://www.w3.org/2000/svg">
 <g>
  <path d="m85.828 29.148c-1.3984-2.4102-4.2969-3.5-6.9375-2.6133-2.6406 0.89062-4.2891 3.5117-3.9453 6.2773l-20.039 11.625c-2.8438-2.5273-7.1406-2.4883-9.9375 0.09375l-19.859-11.719c0.39062-2.4258-0.77734-4.8398-2.918-6.043-2.1445-1.207-4.8125-0.94531-6.6836 0.64844-1.8711 1.5977-2.5469 4.1875-1.6953 6.4961 0.85156 2.3047 3.0508 3.8359 5.5078 3.8359 1.1602-0.003906 2.293-0.34766 3.2578-0.99219l20.125 11.906c-0.082031 0.44141-0.12109 0.88672-0.125 1.3359 0.007813 3.1914 2.0508 6.0195 5.0781 7.0312v23.188c-2.543 1.1094-3.957 3.8516-3.3906 6.5664 0.56641 2.7188 2.9609 4.6641 5.7344 4.6641s5.168-1.9453 5.7344-4.6641c0.56641-2.7148-0.84766-5.457-3.3906-6.5664v-23.188c3.5898-1.1914 5.7109-4.8945 4.9219-8.5938l20.078-11.609c1.0039 0.73438 2.2148 1.1289 3.4609 1.1328 2.0938-0.007813 4.0273-1.1289 5.0703-2.9492 1.043-1.8164 1.0352-4.0508-0.015625-5.8633z"/>
  <path d="m70.312 33.32c-0.082031-0.74609-0.082031-1.5039 0-2.25 0.035156-0.30859-0.066406-0.61719-0.27344-0.84766-0.20703-0.23047-0.50391-0.36328-0.8125-0.36328h-38.281c-0.30859 0.003906-0.60156 0.13672-0.80859 0.36719-0.20703 0.23047-0.30859 0.53516-0.27734 0.84375 0.0625 0.73828 0.046875 1.4844-0.046875 2.2188-0.042969 0.31641 0.050781 0.63281 0.25781 0.875 0.21094 0.23828 0.51172 0.37891 0.82813 0.38281h38.312c0.31641 0.003906 0.61719-0.12891 0.82812-0.36328 0.21094-0.23438 0.3125-0.55078 0.27344-0.86328z"/>
  <path d="m46.25 74.406-19.328-33.469c-0.15625-0.25781-0.41016-0.44141-0.70703-0.50781-0.29688-0.066407-0.60547-0.003907-0.85547 0.16406-0.61328 0.42188-1.2656 0.78125-1.9531 1.0703-0.29688 0.11719-0.52734 0.35547-0.63281 0.65625-0.10156 0.30078-0.074219 0.62891 0.085937 0.90625l19.328 33.531c0.16016 0.26953 0.42578 0.45703 0.73438 0.51953 0.30469 0.0625 0.625-0.011719 0.875-0.19922 0.59766-0.44141 1.2422-0.81641 1.9219-1.1172 0.28906-0.125 0.50781-0.36328 0.60938-0.66016s0.074219-0.62109-0.078125-0.89453z"/>
  <path d="m40.828 78.258-15.828-9.1641c0.62891-2.9609-1.1172-5.9141-4.0156-6.7891v-18.75c0.003906-0.29688-0.11719-0.58203-0.32812-0.78906-0.21484-0.20312-0.5-0.31641-0.79688-0.30469h-0.5c-0.58984 0-1.1836-0.046876-1.7656-0.14844-0.32031-0.058594-0.64844 0.023438-0.89844 0.23047s-0.39844 0.51562-0.39844 0.83984v19.453c-2.7305 1.6562-3.6367 5.1914-2.0312 7.9531 1.6016 2.7617 5.1211 3.7305 7.9141 2.1797l0.054687-0.039062 16.359 9.4531c0.28125 0.15234 0.61719 0.17578 0.91406 0.066407 0.30078-0.11328 0.53906-0.35156 0.64844-0.65234 0.26562-0.69531 0.60547-1.3633 1.0156-1.9844 0.16797-0.25 0.23047-0.55859 0.16406-0.85156-0.066407-0.29297-0.25-0.54688-0.50781-0.70313z"/>
  <path d="m27.609 25.438c0.46484 0.58984 0.86328 1.2305 1.1875 1.9062 0.12891 0.28516 0.375 0.5 0.67188 0.59375 0.30078 0.09375 0.625 0.050781 0.89062-0.10938l15.734-9.0781c2.2305 2.0508 5.6602 2.0508 7.8906 0l15.812 9.125c0.26562 0.16406 0.58984 0.20312 0.88672 0.11328 0.30078-0.09375 0.54688-0.30469 0.67578-0.58984 0.33203-0.66406 0.73047-1.2891 1.1953-1.8672 0.20703-0.25 0.29687-0.57422 0.23828-0.89453-0.054688-0.32031-0.24609-0.59766-0.52734-0.76172l-16.406-9.4609c0.12891-2.1133-0.98438-4.1094-2.8516-5.1094-1.8281-1.0469-4.0742-1.0469-5.8984 0.003906-1.8242 1.0508-2.957 2.9922-2.9688 5.0977l-16.234 9.375c-0.27734 0.16406-0.47266 0.44141-0.52734 0.76172-0.058594 0.31641 0.027344 0.64453 0.23047 0.89453z"/>
  <path d="m83.742 63.078v-19.531c0-0.32422-0.14453-0.62891-0.39453-0.83594-0.25-0.20703-0.57812-0.29297-0.89453-0.23438-0.55469 0.09375-1.1172 0.14063-1.6797 0.14063h-0.57813c-0.30469-0.011719-0.60156 0.10547-0.81641 0.32031s-0.33203 0.50781-0.32422 0.8125v18.68c-2.9141 0.83203-4.707 3.7578-4.125 6.7344l-15.758 9.0938c-0.26562 0.15234-0.45312 0.40625-0.51953 0.70313-0.070313 0.29687-0.011719 0.60937 0.16016 0.85937 0.41016 0.62109 0.75 1.2891 1.0156 1.9844 0.10938 0.30078 0.34766 0.53906 0.64844 0.65234 0.29688 0.10938 0.63281 0.085938 0.91406-0.066406l16.188-9.375 0.10938 0.078125c2.7695 1.668 6.3672 0.77344 8.0352-1.9961 1.668-2.7695 0.77344-6.3672-1.9961-8.0352z"/>
  <path d="m73.039 41-19.289 33.406c-0.15625 0.27344-0.1875 0.60156-0.085938 0.89844 0.10156 0.29687 0.32031 0.53906 0.60938 0.66406 0.67969 0.30078 1.3242 0.67578 1.9219 1.1172 0.25 0.19141 0.57422 0.26172 0.88281 0.19922s0.57812-0.25391 0.73438-0.52734l19.297-33.438c0.16016-0.27344 0.19141-0.60156 0.089844-0.90234-0.10156-0.30078-0.32812-0.53906-0.62109-0.66016-0.68359-0.29297-1.332-0.66016-1.9375-1.0938-0.25-0.1875-0.57031-0.25781-0.875-0.19141-0.30859 0.0625-0.57031 0.25391-0.72656 0.52734z"/>
 </g>
</svg>
