<?xml version="1.0" encoding="UTF-8"?>
<svg width="1200pt" height="1200pt" version="1.1" viewBox="0 0 1200 1200" xmlns="http://www.w3.org/2000/svg">
 <path d="m1025 750h-50.016v-99.984c0-41.344-33.656-75-75-75h-275.02v-125.02h50.016c41.344 0 75-33.656 75-75v-99.984c0-41.344-33.656-75-75-75h-150c-41.344 0-75 33.656-75 75v99.984c0 41.344 33.656 75 75 75h50.016v125.02h-275.02c-41.344 0-75 33.656-75 75v99.984h-50.016c-41.344 0-75 33.656-75 75v99.984c0 41.344 33.656 75 75 75h150c41.344 0 75-33.656 75-75v-99.984c0-41.344-33.656-75-75-75h-50.016v-99.984c0-13.781 11.203-24.984 24.984-24.984h275.02v125.02h-50.016c-41.344 0-75 33.656-75 75v99.984c0 41.344 33.656 75 75 75h150c41.344 0 75-33.656 75-75v-99.984c0-41.344-33.656-75-75-75h-50.016v-125.02h275.02c13.781 0 24.984 11.203 24.984 24.984v99.984h-50.016c-41.344 0-75 33.656-75 75v99.984c0 41.344 33.656 75 75 75h150c41.344 0 75-33.656 75-75v-99.984c0-41.344-33.656-75-75-75zm-525-375v-99.984c0-13.781 11.203-24.984 24.984-24.984h150c13.781 0 24.984 11.203 24.984 24.984v99.984c0 13.781-11.203 24.984-24.984 24.984h-150c-13.781 0-24.984-11.203-24.984-24.984zm-150 450v99.984c0 13.781-11.203 24.984-24.984 24.984h-150c-13.781 0-24.984-11.203-24.984-24.984v-99.984c0-13.781 11.203-24.984 24.984-24.984h150c13.781 0 24.984 11.203 24.984 24.984zm349.97 0v99.984c0 13.781-11.203 24.984-24.984 24.984h-150c-13.781 0-24.984-11.203-24.984-24.984v-99.984c0-13.781 11.203-24.984 24.984-24.984h150c13.781 0 24.984 11.203 24.984 24.984zm350.02 99.984c0 13.781-11.203 24.984-24.984 24.984h-150c-13.781 0-24.984-11.203-24.984-24.984v-99.984c0-13.781 11.203-24.984 24.984-24.984h150c13.781 0 24.984 11.203 24.984 24.984z"/>
</svg>
