<?xml version="1.0" encoding="UTF-8"?>
<svg width="100pt" height="100pt" version="1.1" viewBox="0 0 100 100" xmlns="http://www.w3.org/2000/svg">
 <g>
  <path d="m85.312 81.445h-14.414l-9.25 4.2344c-0.32813 0.14844-0.70703 0.12109-1.0078-0.074219-0.30078-0.19141-0.48438-0.52734-0.48438-0.88672v-19.531c0-2.5039 2.0273-4.5312 4.5312-4.5312h20.625c1.2031 0 2.3555 0.47656 3.2031 1.3281 0.85156 0.84766 1.3281 2 1.3281 3.2031v11.719c0.003906 1.2031-0.47266 2.3594-1.3242 3.2109-0.85156 0.85156-2.0039 1.3281-3.207 1.3281z"/>
  <path d="m72.703 18.75h-18.797v-7.1875c0-1.207-0.98047-2.1875-2.1875-2.1875h-3.4375c-1.207 0-2.1875 0.98047-2.1875 2.1875v7.1875h-18.805c-3.9219 0.003906-7.6836 1.5625-10.457 4.332-2.7695 2.7734-4.3281 6.5352-4.332 10.457v8.8125c-0.003906 9.2969 3.5352 18.242 9.8945 25.02s15.062 10.879 24.34 11.465c0.60938 0.042968 1.2031-0.17188 1.6484-0.58984 0.44531-0.41406 0.69531-0.99609 0.69531-1.6055v-3.4375c-0.007813-1.1562-0.91016-2.1094-2.0625-2.1797-3.875-0.26563-7.6562-1.3281-11.102-3.125-4.7031-2.4062-8.6484-6.0664-11.402-10.574-2.7539-4.5078-4.207-9.6914-4.1992-14.973v-8.8047c0-3.8555 3.1289-6.9844 6.9844-6.9844h45.414c1.8516 0 3.625 0.73438 4.9336 2.043 1.3086 1.3086 2.043 3.082 2.043 4.9336v8.8125c-0.003906 2.7031-0.15625 5.4023-0.46094 8.0859-0.125 1.1562 0.67578 2.207 1.8203 2.3984l3.3984 0.5625c0.58984 0.097656 1.1914-0.050782 1.668-0.41016 0.47656-0.35547 0.78516-0.89453 0.85547-1.4883 0.35156-3.0352 0.53125-6.0898 0.53125-9.1484v-8.8047c0-3.9258-1.5586-7.6875-4.332-10.465-2.7773-2.7734-6.5391-4.332-10.465-4.332z"/>
  <path d="m43.75 43.75c0 3.4531-2.7969 6.25-6.25 6.25s-6.25-2.7969-6.25-6.25 2.7969-6.25 6.25-6.25 6.25 2.7969 6.25 6.25"/>
  <path d="m68.75 43.75c0 3.4531-2.7969 6.25-6.25 6.25s-6.25-2.7969-6.25-6.25 2.7969-6.25 6.25-6.25 6.25 2.7969 6.25 6.25"/>
 </g>
</svg>
