<?xml version="1.0" encoding="UTF-8"?>
<svg width="1200pt" height="1200pt" version="1.1" viewBox="0 0 1200 1200" xmlns="http://www.w3.org/2000/svg">
 <path d="m605.64 392.88 154.44-172.32c1.9883-2.2227 2.4844-5.4062 1.2656-8.1289-1.2148-2.7188-3.9219-4.4727-6.9023-4.4688h-73.082c-4.1289 0-7.4922-3.3125-7.5586-7.4414v-157.2c-0.12891-4.082-3.4766-7.3242-7.5625-7.3203h-132c-4.1719 0-7.5586 3.3828-7.5586 7.5586v157.2c-0.066407 4.125-3.4297 7.4375-7.5586 7.4375h-73.562c-2.9805 0-5.6875 1.75-6.9023 4.4727-1.2188 2.7227-0.72266 5.9062 1.2656 8.1289l154.44 172.08c1.4336 1.6094 3.4883 2.5273 5.6406 2.5273s4.207-0.91797 5.6406-2.5273zm-212.76 201.48-172.32-154.44c-2.2227-1.9883-5.4062-2.4844-8.1289-1.2656-2.7188 1.2148-4.4727 3.9219-4.4688 6.9023v73.082c0 4.1289-3.3125 7.4922-7.4414 7.5586h-157.2c-4.1758 0-7.5586 3.3867-7.5586 7.5625v132c0 4.1719 3.3828 7.5586 7.5586 7.5586h157.2c4.1289 0.066407 7.4414 3.4297 7.4414 7.5586v73.082c-0.003907 2.9805 1.75 5.6875 4.4688 6.9062 2.7227 1.2148 5.9062 0.72266 8.1289-1.2656l172.32-153.96c1.6094-1.4336 2.5273-3.4883 2.5273-5.6406s-0.91797-4.207-2.5273-5.6406zm201.48 212.76-154.44 172.32c-1.6289 2.2305-1.9102 5.1719-0.73438 7.668 1.1719 2.5 3.6172 4.1602 6.3711 4.332h73.082c4.1289 0 7.4922 3.3086 7.5586 7.4375v157.2c0 4.1758 3.3867 7.5625 7.5625 7.5625h132c4.1719 0 7.5586-3.3867 7.5586-7.5625v-156.6c0.066407-4.1289 3.4297-7.4414 7.5586-7.4414h73.082c2.7539-0.17187 5.1992-1.8281 6.3711-4.3281 1.1758-2.5 0.89453-5.4414-0.73047-7.6719l-153.96-172.92c-1.4336-1.6094-3.4883-2.5273-5.6406-2.5273s-4.207 0.91797-5.6406 2.5273zm192-92.52c10.031 0 19.301 5.3516 24.32 14.039 5.0156 8.6875 5.0156 19.391 0 28.078-5.0195 8.6875-14.289 14.043-24.32 14.043l-79.922-0.71875 0.003906-0.003907c-10.516-0.09375-20.57-4.3281-27.984-11.785-7.4102-7.4609-11.586-17.539-11.617-28.055v-261c0.16406-10.641 4.4688-20.801 12-28.32 8.2852-7.9219 19.379-12.238 30.84-12l77.398 0.71875v0.003906c10.035 0 19.305 5.3516 24.32 14.039 5.0156 8.6875 5.0156 19.391 0 28.078-5.0156 8.6875-14.285 14.043-24.32 14.043l-63.121-0.60156v228h63.602zm-372-229.2v-0.003906c-10.031 0-19.301-5.3516-24.316-14.039s-5.0156-19.391 0-28.078 14.285-14.043 24.316-14.043l79.922 0.71875v0.003907c10.512 0.09375 20.566 4.3281 27.98 11.785 7.4141 7.4609 11.586 17.539 11.617 28.055v261c-0.16406 10.641-4.4688 20.801-12 28.32-8.2695 7.9453-19.371 12.266-30.84 12l-77.398-0.71875v-0.003906c-10.031 0-19.301-5.3516-24.32-14.039-5.0156-8.6875-5.0156-19.391 0-28.078 5.0195-8.6875 14.289-14.043 24.32-14.043l63.121 0.60156v-228h-63.602zm393 120 172.08 154.68c2.2305 1.6289 5.1719 1.9102 7.668 0.73438 2.5-1.1719 4.1602-3.6172 4.332-6.3711v-73.082c0-4.1289 3.3086-7.4922 7.4375-7.5586h157.2c4.1758 0 7.5625-3.3867 7.5625-7.5625v-132c0-4.1719-3.3867-7.5586-7.5625-7.5586h-156.6c-4.1289-0.066407-7.4414-3.4297-7.4414-7.5586v-73.562c-0.17187-2.7539-1.8281-5.1992-4.3281-6.3711-2.5-1.1758-5.4414-0.89453-7.6719 0.73438l-172.92 154.44c-1.6094 1.4336-2.5273 3.4883-2.5273 5.6406s0.91797 4.207 2.5273 5.6406z" fill-rule="evenodd"/>
</svg>
