<?xml version="1.0" encoding="UTF-8"?>
<svg width="100pt" height="100pt" version="1.1" viewBox="0 0 100 100" xmlns="http://www.w3.org/2000/svg">
 <g>
  <path d="m85.312 44.531c1.207 0 2.1875-0.98047 2.1875-2.1875v-3.4375c0-1.207-0.98047-2.1875-2.1875-2.1875h-7.1875v-1.9688c-0.003906-7.1094-5.7656-12.871-12.875-12.875h-1.9688v-7.1875c0-1.207-0.98047-2.1875-2.1875-2.1875h-3.4375c-1.207 0-2.1875 0.98047-2.1875 2.1875v7.1875h-10.938v-7.1875c0-1.207-0.98047-2.1875-2.1875-2.1875h-3.4375c-1.207 0-2.1875 0.98047-2.1875 2.1875v7.1875h-1.9688c-7.1094 0.003906-12.871 5.7656-12.875 12.875v1.9688h-7.1875c-1.207 0-2.1875 0.98047-2.1875 2.1875v3.4375c0 0.58203 0.23047 1.1367 0.64062 1.5469s0.96484 0.64062 1.5469 0.64062h7.1875v10.938h-7.1875c-1.207 0-2.1875 0.98047-2.1875 2.1875v3.4375c0 1.207 0.98047 2.1875 2.1875 2.1875h7.1875v1.9688c0.003906 7.1094 5.7656 12.871 12.875 12.875h1.9688v7.1875c0 1.207 0.98047 2.1875 2.1875 2.1875h3.4375c1.207 0 2.1875-0.98047 2.1875-2.1875v-7.1875h10.938v7.1875c0 1.207 0.98047 2.1875 2.1875 2.1875h3.4375c1.207 0 2.1875-0.98047 2.1875-2.1875v-7.1875h1.9688c7.1094-0.003906 12.871-5.7656 12.875-12.875v-1.9688h7.1875c1.207 0 2.1875-0.98047 2.1875-2.1875v-3.4375c0-1.207-0.98047-2.1875-2.1875-2.1875h-7.1875v-10.938zm-15 20.719c-0.003906 2.793-2.2695 5.0586-5.0625 5.0625h-30.469c-1.3477 0.007812-2.6406-0.52344-3.5977-1.4727-0.95703-0.95312-1.4922-2.2422-1.4961-3.5898v-30.469c-0.007812-1.3477 0.52344-2.6406 1.4727-3.5977 0.95312-0.95703 2.2422-1.4922 3.5898-1.4961h30.469c1.3477-0.007812 2.6406 0.52344 3.5977 1.4727 0.95703 0.95312 1.4922 2.2422 1.4961 3.5898z"/>
  <path d="m46.172 42.188h7.6562c2.1992 0 3.9844 2.1992 3.9844 3.9844v7.6562c0 2.1992-1.7852 3.9844-3.9844 3.9844h-7.6562c-2.1992 0-3.9844-2.1992-3.9844-3.9844v-7.6562c0-2.1992 1.7852-3.9844 3.9844-3.9844z"/>
 </g>
</svg>
