<?xml version="1.0" encoding="UTF-8"?>
<svg width="100pt" height="100pt" version="1.1" viewBox="0 0 100 100" xmlns="http://www.w3.org/2000/svg">
 <g>
  <path d="m78.961 92.141 2.7891-7.0312c1-2.5312 3.0078-4.5391 5.5391-5.5391l7.0781-2.7891c0.29687-0.11719 0.49219-0.40625 0.49219-0.72656 0-0.32031-0.19531-0.60938-0.49219-0.72656l-7.0781-2.7891c-2.5312-1-4.5391-3.0078-5.5391-5.5391l-2.7891-7.0312c-0.11719-0.29688-0.40625-0.49219-0.72656-0.49219s-0.60938 0.19531-0.72656 0.49219l-2.7891 7.0312c-1 2.5352-3.0039 4.5391-5.5391 5.5391l-7.0312 2.7891c-0.29688 0.11719-0.49219 0.40625-0.49219 0.72656 0 0.32031 0.19531 0.60937 0.49219 0.72656l7.0312 2.7891c2.5352 1 4.5391 3.0039 5.5391 5.5391l2.7891 7.0312c0.11719 0.30078 0.40625 0.5 0.72656 0.5s0.60938-0.19922 0.72656-0.5z"/>
  <path d="m35.938 32.812c-1.793 2.3594-2.3867 5.4219-1.6016 8.2812 0.71094 3.0469 0.78125 5.0781 0.24219 6.0469-0.125 0.22656-0.30469 0.53906-2.1328 0.53906h-1.2734c-0.60547 0-1.0938 0.48828-1.0938 1.0938v2.5c0.007813 0.59766 0.49609 1.0742 1.0938 1.0703h1.2656c1.8281 0 2.0078 0.3125 2.1328 0.53906 0.55469 0.96875 0.46875 3-0.24219 6.0469-0.77344 2.8516-0.17969 5.9023 1.6094 8.2578 1.5508 1.9805 3.9141 3.1562 6.4297 3.1953h1.25c0.60547 0 1.0938-0.48828 1.0938-1.0938v-2.5c0-0.60547-0.48828-1.0938-1.0938-1.0938h-1.25c-1.0859-0.042968-2.0938-0.5625-2.7578-1.4219-0.89453-1.2422-1.1562-2.832-0.71094-4.2969 0.69531-2.9688 1.2969-6.7266-0.24219-9.4375-0.11328-0.1875-0.23828-0.36719-0.375-0.53906 0.13672-0.17969 0.26172-0.36719 0.375-0.5625 1.5625-2.7109 0.9375-6.4688 0.24219-9.4375-0.44531-1.4648-0.18359-3.0547 0.71094-4.2969 0.66406-0.85938 1.6719-1.3789 2.7578-1.4219h1.25c0.60547 0 1.0938-0.48828 1.0938-1.0938v-2.5c0-0.60547-0.48828-1.0938-1.0938-1.0938h-1.25c-2.5195 0.042969-4.8828 1.2266-6.4297 3.2188z"/>
  <path d="m52.309 68.469 13.469-38.484c0.19922-0.57031 0.92969-0.83203 1.3945-0.67188l2.3594 0.82422c0.57031 0.19922 0.87109 0.82422 0.67188 1.3945l-13.469 38.484c-0.19922 0.57031-0.92969 0.83203-1.3945 0.67188l-2.3594-0.82422c-0.57031-0.19922-0.87109-0.82422-0.67188-1.3945z"/>
  <path d="m52.078 76.562h-22.266c-3.5195 0-6.375-2.8555-6.375-6.375v-40.375c0-3.5195 2.8555-6.375 6.375-6.375h40.375c3.5195 0 6.375 2.8555 6.375 6.375v19.531c0.011719 1.1719 0.9375 2.1328 2.1094 2.1875 0.93359 0.066406 1.8477 0.28906 2.7109 0.65625 0.67188 0.27344 1.4375 0.19531 2.0391-0.21484 0.60156-0.40625 0.96094-1.0898 0.95312-1.8164v-20.312c0.007812-3.7695-1.4844-7.3867-4.1445-10.051-2.6602-2.668-6.2734-4.168-10.043-4.168h-40.375c-7.8359 0-14.188 6.3516-14.188 14.188v40.375c0 7.8359 6.3516 14.188 14.188 14.188h23.992c0.82031-0.007812 1.5703-0.47656 1.9336-1.2109 0.36328-0.73828 0.28516-1.6172-0.20703-2.2734-0.60156-0.83984-1.0625-1.7734-1.3594-2.7656-0.27734-0.92578-1.1289-1.5625-2.0938-1.5625z"/>
 </g>
</svg>
