<?xml version="1.0" encoding="UTF-8"?>
<svg width="100pt" height="100pt" version="1.1" viewBox="0 0 100 100" xmlns="http://www.w3.org/2000/svg">
 <g>
  <path d="m32.188 12.5h-11.875c-4.3164 0-7.8125 3.4961-7.8125 7.8125v11.875c0 1.207 0.98047 2.1875 2.1875 2.1875h3.4375c1.207 0 2.1875-0.98047 2.1875-2.1875v-11.875h11.875c1.207 0 2.1875-0.98047 2.1875-2.1875v-3.4375c0-1.207-0.98047-2.1875-2.1875-2.1875z"/>
  <path d="m32.188 79.688h-11.875v-11.875c0-1.207-0.98047-2.1875-2.1875-2.1875h-3.4375c-1.207 0-2.1875 0.98047-2.1875 2.1875v11.875c0 2.0703 0.82422 4.0586 2.2891 5.5234 1.4648 1.4648 3.4531 2.2891 5.5234 2.2891h11.875c1.207 0 2.1875-0.98047 2.1875-2.1875v-3.4375c0-1.207-0.98047-2.1875-2.1875-2.1875z"/>
  <path d="m85.312 64.844h-3.4375c-1.207 0-2.1875 0.98047-2.1875 2.1875v12.656h-11.875c-1.207 0-2.1875 0.98047-2.1875 2.1875v3.4375c0 1.207 0.98047 2.1875 2.1875 2.1875h11.875c2.0703 0 4.0586-0.82422 5.5234-2.2891 1.4648-1.4648 2.2891-3.4531 2.2891-5.5234v-12.656c0-1.207-0.98047-2.1875-2.1875-2.1875z"/>
  <path d="m79.688 12.5h-11.875c-1.207 0-2.1875 0.98047-2.1875 2.1875v3.4375c0 1.207 0.98047 2.1875 2.1875 2.1875h11.875v11.875c0 1.207 0.98047 2.1875 2.1875 2.1875h3.4375c1.207 0 2.1875-0.98047 2.1875-2.1875v-11.875c0-2.0703-0.82422-4.0586-2.2891-5.5234-1.4648-1.4648-3.4531-2.2891-5.5234-2.2891z"/>
  <path d="m47.055 45.258c0 3.9375-5.9062 3.9375-5.9062 0s5.9062-3.9375 5.9062 0"/>
  <path d="m58.852 45.258c0 3.9375-5.9062 3.9375-5.9062 0s5.9062-3.9375 5.9062 0"/>
  <path d="m50 60.875c-3.2656-0.03125-6.2305-1.9219-7.6328-4.875-0.15625-0.28516-0.17578-0.625-0.054688-0.92969 0.12109-0.30078 0.37109-0.53125 0.67969-0.63281l2.3438-0.78125c0.49609-0.17188 1.043 0.023438 1.3203 0.46875 0.62109 1.2578 1.9023 2.0508 3.3047 2.0508 1.4023 0 2.6836-0.79297 3.3047-2.0508 0.27734-0.44531 0.82422-0.64062 1.3203-0.46875l2.3438 0.78125c0.30859 0.10156 0.55859 0.33203 0.67969 0.63281 0.12109 0.30469 0.10156 0.64453-0.054687 0.92969-1.3906 2.9258-4.3164 4.8164-7.5547 4.875z"/>
  <path d="m50 74.219c-5.5703-0.074219-10.895-2.3203-14.836-6.2578-3.9375-3.9414-6.1836-9.2656-6.2578-14.836v-21.094c0-2.1562 1.75-3.9062 3.9062-3.9062h34.375c1.0352 0 2.0312 0.41016 2.7617 1.1445 0.73438 0.73047 1.1445 1.7266 1.1445 2.7617v21.094c-0.074219 5.5703-2.3203 10.895-6.2578 14.836-3.9414 3.9375-9.2656 6.1836-14.836 6.2578zm-13.281-38.281v17.188c0 7.3359 5.9453 13.281 13.281 13.281s13.281-5.9453 13.281-13.281v-17.188z"/>
 </g>
</svg>
