<?xml version="1.0" encoding="UTF-8"?>
<svg width="100pt" height="100pt" version="1.1" viewBox="0 0 100 100" xmlns="http://www.w3.org/2000/svg">
 <g>
  <path d="m32.188 12.5h-11.875c-4.3164 0-7.8125 3.4961-7.8125 7.8125v11.875c0 1.207 0.98047 2.1875 2.1875 2.1875h3.4375c1.207 0 2.1875-0.98047 2.1875-2.1875v-11.875h11.875c1.207 0 2.1875-0.98047 2.1875-2.1875v-3.4375c0-1.207-0.98047-2.1875-2.1875-2.1875z"/>
  <path d="m32.188 79.688h-11.875v-11.875c0-1.207-0.98047-2.1875-2.1875-2.1875h-3.4375c-1.207 0-2.1875 0.98047-2.1875 2.1875v11.875c0 2.0703 0.82422 4.0586 2.2891 5.5234 1.4648 1.4648 3.4531 2.2891 5.5234 2.2891h11.875c1.207 0 2.1875-0.98047 2.1875-2.1875v-3.4375c0-1.207-0.98047-2.1875-2.1875-2.1875z"/>
  <path d="m85.312 64.844h-3.4375c-1.207 0-2.1875 0.98047-2.1875 2.1875v12.656h-11.875c-1.207 0-2.1875 0.98047-2.1875 2.1875v3.4375c0 1.207 0.98047 2.1875 2.1875 2.1875h11.875c2.0703 0 4.0586-0.82422 5.5234-2.2891 1.4648-1.4648 2.2891-3.4531 2.2891-5.5234v-12.656c0-1.207-0.98047-2.1875-2.1875-2.1875z"/>
  <path d="m79.688 12.5h-11.875c-1.207 0-2.1875 0.98047-2.1875 2.1875v3.4375c0 1.207 0.98047 2.1875 2.1875 2.1875h11.875v11.875c0 1.207 0.98047 2.1875 2.1875 2.1875h3.4375c1.207 0 2.1875-0.98047 2.1875-2.1875v-11.875c0-2.0703-0.82422-4.0586-2.2891-5.5234-1.4648-1.4648-3.4531-2.2891-5.5234-2.2891z"/>
  <path d="m34.156 62.695-10.875-11.961c-0.375-0.41797-0.375-1.0508 0-1.4688l10.875-11.961c0.19531-0.21875 0.47266-0.35156 0.76562-0.36328 0.29297-0.015625 0.58203 0.09375 0.79688 0.29297l1.8438 1.6797c0.21875 0.19531 0.35156 0.47266 0.36719 0.76563 0.015624 0.29297-0.089844 0.58203-0.28906 0.79687l-8.6953 9.5234 8.6797 9.5391c0.19922 0.21484 0.30469 0.50391 0.28906 0.79688-0.015624 0.29297-0.14844 0.57031-0.36719 0.76562l-1.8438 1.6641c-0.21484 0.19531-0.49609 0.30078-0.78906 0.28516-0.28906-0.011719-0.5625-0.14062-0.75781-0.35547z"/>
  <path d="m44.773 60.258 5.9297-21.746c0.16016-0.58203 0.87109-0.89453 1.3438-0.76562l2.4102 0.65625c0.58203 0.16016 0.92578 0.76172 0.76562 1.3438l-5.9297 21.746c-0.16016 0.58203-0.87109 0.89453-1.3438 0.76562l-2.4102-0.65625c-0.58203-0.16016-0.92578-0.76172-0.76562-1.3438z"/>
  <path d="m64.297 62.766-1.8438-1.6797c-0.21875-0.19531-0.35156-0.47266-0.36719-0.76563-0.015626-0.29297 0.089843-0.58203 0.28906-0.79687l8.7188-9.5234-8.7188-9.5391c-0.19922-0.21484-0.30469-0.50391-0.28906-0.79688 0.015624-0.29297 0.14844-0.57031 0.36719-0.76562l1.8438-1.6797c0.21484-0.19922 0.50391-0.30859 0.79688-0.29297 0.29297 0.011719 0.57031 0.14453 0.76562 0.36328l10.859 11.977c0.375 0.41797 0.375 1.0508 0 1.4688l-10.875 11.961c-0.19531 0.21484-0.46875 0.34375-0.75781 0.35547-0.29297 0.015625-0.57422-0.089843-0.78906-0.28516z"/>
 </g>
</svg>
