<?xml version="1.0" encoding="UTF-8"?>
<svg width="100pt" height="100pt" version="1.1" viewBox="0 0 100 100" xmlns="http://www.w3.org/2000/svg">
 <g>
  <path d="m57.359 72.398c-0.27344-1.0742-1.3047-1.7773-2.4062-1.6406-1.957 0.21484-3.9297 0.32813-5.8984 0.33594-7.6211-0.007812-14.926-3.0391-20.316-8.4258-5.3867-5.3906-8.418-12.695-8.4258-20.316v-8.8047c0-3.8555 3.1289-6.9844 6.9844-6.9844h45.406c3.8555 0 6.9844 3.1289 6.9844 6.9844v6.6172c0 1.207 0.98047 2.1875 2.1875 2.1875h3.4375c1.207 0 2.1875-0.98047 2.1875-2.1875v-6.6172c0-3.9258-1.5586-7.6875-4.332-10.465-2.7773-2.7734-6.5391-4.332-10.465-4.332h-18.797v-7.1875c0-1.207-0.98047-2.1875-2.1875-2.1875h-3.4375c-1.207 0-2.1875 0.98047-2.1875 2.1875v7.1875h-18.797c-3.9258 0-7.6875 1.5586-10.465 4.332-2.7734 2.7773-4.332 6.5391-4.332 10.465v8.8047c0.011719 9.6914 3.8633 18.984 10.719 25.836 6.8516 6.8555 16.145 10.707 25.836 10.719 2.4453-0.003906 4.8867-0.15625 7.3125-0.45312 0.60937-0.085937 1.1562-0.42578 1.5039-0.93359 0.34375-0.50781 0.46484-1.1406 0.32422-1.7383z"/>
  <path d="m43.75 43.75c0 3.4531-2.7969 6.25-6.25 6.25s-6.25-2.7969-6.25-6.25 2.7969-6.25 6.25-6.25 6.25 2.7969 6.25 6.25"/>
  <path d="m68.75 43.75c0 3.4531-2.7969 6.25-6.25 6.25s-6.25-2.7969-6.25-6.25 2.7969-6.25 6.25-6.25 6.25 2.7969 6.25 6.25"/>
  <path d="m86.992 72.945-6.625-3.4141 2.3906-15.539c0.089844-0.57031-0.19141-1.1367-0.69922-1.4141-0.50781-0.27344-1.1367-0.19922-1.5664 0.1875l-16.5 14.844c-0.33594 0.30469-0.49609 0.75781-0.43359 1.207 0.066406 0.44922 0.35156 0.83984 0.76172 1.0352l6.6484 3.1641-2.3438 15.328c-0.085938 0.56641 0.19141 1.125 0.69531 1.4023 0.5 0.27734 1.1211 0.20703 1.5547-0.16797l16.406-14.43c0.32031-0.30078 0.47656-0.73828 0.42188-1.1758-0.058594-0.4375-0.32422-0.82031-0.71094-1.0273z"/>
 </g>
</svg>
