<?xml version="1.0" encoding="UTF-8"?>
<svg width="100pt" height="100pt" version="1.1" viewBox="0 0 100 100" xmlns="http://www.w3.org/2000/svg">
 <g>
  <path d="m73.438 64.062c0 6.25-9.375 6.25-9.375 0s9.375-6.25 9.375 0"/>
  <path d="m47.656 24.148v27.883c0 0.28906 0.11328 0.56641 0.32031 0.77344 0.20703 0.20703 0.48438 0.32031 0.77344 0.32031h2.5c0.28906 0 0.56641-0.11328 0.77344-0.32031 0.20703-0.20703 0.32031-0.48438 0.32031-0.77344v-27.883c2.6641-1.1172 4.168-3.957 3.6016-6.7852-0.57031-2.832-3.0586-4.8672-5.9453-4.8672s-5.375 2.0352-5.9453 4.8672c-0.56641 2.8281 0.9375 5.668 3.6016 6.7852z"/>
  <path d="m75.867 43.75h-4.9766c-1.207 0-2.1875 0.98047-2.1875 2.1875v3.4375c0 1.207 0.98047 2.1875 2.1875 2.1875h4.9766c1.0117 0 1.9844 0.40234 2.7031 1.1172 0.71484 0.71875 1.1172 1.6914 1.1172 2.7031v15.797c0 1.0117-0.40234 1.9844-1.1172 2.7031-0.71875 0.71484-1.6914 1.1172-2.7031 1.1172h-51.734c-1.0117 0-1.9844-0.40234-2.7031-1.1172-0.71484-0.71875-1.1172-1.6914-1.1172-2.7031v-15.797c0-2.1094 1.7109-3.8203 3.8203-3.8203h3.5938c1.207 0 2.1875-0.98047 2.1875-2.1875v-3.4375c0-1.207-0.98047-2.1875-2.1875-2.1875h-3.5938c-6.4258 0-11.633 5.207-11.633 11.633v15.797c0 6.4258 5.207 11.633 11.633 11.633h51.734c6.4258 0 11.633-5.207 11.633-11.633v-15.797c0-6.4258-5.207-11.633-11.633-11.633z"/>
  <path d="m59.688 53.125h2.5c0.60547 0 1.0938-0.48828 1.0938-1.0938v-7.6172l3.125-5.0078c0.25781 0.03125 0.51953 0.050781 0.78125 0.054688 2.8203 0.007812 5.2734-1.9258 5.9258-4.668 0.65234-2.7422-0.66406-5.5742-3.1797-6.8398-2.5195-1.2656-5.5781-0.63672-7.3867 1.5234-1.8125 2.1562-1.9023 5.2812-0.21875 7.5391l-3.7344 6.0703v8.9453c0 0.28906 0.11328 0.56641 0.32031 0.77344 0.20703 0.20703 0.48438 0.32031 0.77344 0.32031z"/>
  <path d="m32.812 39.461c0.26172-0.003907 0.52344-0.023438 0.78125-0.054688l3.125 5.0078v7.6172c0 0.28906 0.11328 0.56641 0.32031 0.77344 0.20703 0.20703 0.48438 0.32031 0.77344 0.32031h2.5c0.28906 0 0.56641-0.11328 0.77344-0.32031 0.20703-0.20703 0.32031-0.48438 0.32031-0.77344v-8.9453l-3.7344-6.0703c1.6758-2.2539 1.582-5.3672-0.22266-7.5156-1.8086-2.1523-4.8594-2.7812-7.3672-1.5156-2.5117 1.2617-3.8242 4.082-3.1719 6.8164 0.64844 2.7344 3.0938 4.6641 5.9023 4.6602z"/>
  <path d="m59.375 64.062c0 6.25-9.375 6.25-9.375 0s9.375-6.25 9.375 0"/>
 </g>
</svg>
