<?xml version="1.0" encoding="UTF-8"?>
<svg width="1200pt" height="1200pt" version="1.1" viewBox="0 0 1200 1200" xmlns="http://www.w3.org/2000/svg">
 <path d="m741.5 227.41c16.32 11.176 28.508 27.406 34.691 46.191 6.5508 17.98 4.0117 38.02-6.8164 53.797-10.828 15.781-28.613 25.359-47.746 25.715-20.062 0.98828-39.879-4.75-56.305-16.309-16.719-11.176-29.227-27.621-35.531-46.715-6.5547-17.98-4.0195-38.02 6.8047-53.801 10.828-15.781 28.613-25.359 47.746-25.715 19.719-0.97266 39.215 4.5625 55.477 15.758 0.58984 0.36328 1.1523 0.76562 1.6914 1.1992zm-16.355 23.578v0.003907c-0.48047-0.29688-0.94531-0.61719-1.3906-0.96094-10.98-7.6328-24.156-11.457-37.516-10.883-10.375-0.23828-20.168 4.7812-26.035 13.344-5.8633 8.5664-7.0039 19.512-3.0273 29.102 4.2852 12.637 12.586 23.523 23.641 30.996 0.48828 0.28906 0.95703 0.60938 1.4023 0.95703 10.977 7.625 24.148 11.449 37.5 10.887 10.375 0.24219 20.172-4.7773 26.039-13.34 5.8672-8.5586 7.0078-19.504 3.0391-29.094-4.2773-12.637-12.582-23.523-23.641-30.984zm44.914-153.05c2.8633 5.5625 6.2656 10.828 10.164 15.719 13.395 16.648 31.387 28.992 51.746 35.484 5.957 1.8789 12.09 3.1641 18.301 3.8398 1.1992-27.672-4.8828-48.324-19.094-58.066-14.258-9.7695-35.723-8.0273-61.105 3.0352zm-212.06 174.37-102.42-6.3711-45.504 66.348 95.016 53.496h0.003906c6.4219-19.48 14.035-38.543 22.797-57.086 9.082-19.301 19.145-38.125 30.145-56.398zm-54.492 183.13c-0.26562 0.38281 0.30078-0.38281 0.43359-0.49219h-0.12109l-0.3125 0.45703zm109.34 75.059 0.39453-0.57422v-0.10938c0 0.13281-0.68359 1.1289-0.38281 0.68359zm-13.297-8.4961-92.699-63.602c-1.3164-0.81641-2.3281-2.043-2.8789-3.4922h-0.12109l10.273-14.977 109.38 75-10.309 14.992v-0.12109c-1.582 0.011719-3.125-0.5-4.3906-1.4531l-8.2188-5.6289c-0.34375-0.26172-0.69922-0.50781-1.0703-0.73047zm-72.875-108.14 116.66 80.004c20.934-15.438 40.453-32.707 58.332-51.598 22.828-24.031 43.695-49.848 62.398-77.211 0.12109-0.20312 0.25391-0.42188 0.39453-0.625l0.085938-0.12109v0.003906c37.352-52.27 64.617-111.05 80.402-173.32 0.70703-3.2148 1.332-6.3828 1.8945-9.4922-7.9727-0.86719-15.844-2.5156-23.496-4.9219-25.84-8.2148-48.676-23.879-65.652-45.023-5.0195-6.2812-9.4102-13.043-13.113-20.184-2.6875 1.6445-5.4102 3.3711-8.1484 5.1836-52.344 37.156-97.297 83.75-132.55 137.39-19.008 27.555-35.758 56.602-50.086 86.855-11.195 23.488-20.27 47.93-27.121 73.031zm-18.504 80.242v0.003906c-7.8047 8.9297-12.938 19.883-14.809 31.594-3.3477 20.426-3.3789 41.258-0.09375 61.691 20.227-4.3086 39.629-11.855 57.453-22.344 10.258-5.9648 18.625-14.695 24.145-25.199l-66.695-45.742zm277.95-32.566 20.82 45.301-45.527 66.395-84.156-69.359c15.898-12.98 30.977-26.938 45.141-41.797 14.738-15.43 28.672-31.605 41.75-48.465l21.07 45.996c0.25391 0.67188 0.55469 1.3242 0.90234 1.9531zm139.97 240.7-257.69 148.77c-6.8555 3.9336-15.602 1.5703-19.547-5.2812l-34.453-59.711v314.76l311.71-180 0.003906-218.54zm-259.56 116.81 265.61-153.35c0.75391-0.52734 1.5586-0.98438 2.3984-1.3555l47.711-27.602-46.969-81.348-315.72 182.3 46.969 81.348zm-448.74-182.25 46.969-81.348 315.66 182.24-46.969 81.348-265.58-153.34c-0.75391-0.52734-1.5586-0.98438-2.3984-1.3555l-47.711-27.602zm70.43-100.92 207.52-119.81-15.926 23.219v0.003907c-4.7539 7.0898-5.9453 15.988-3.2305 24.082 1.6445 5.1719 4.4688 9.8945 8.2461 13.789-10.086 12.398-16.812 27.184-19.523 42.934-4.6094 28.883-3.9492 58.355 1.9414 87 0.65234 3.75 2.7617 7.0859 5.8633 9.2852 3.1016 2.1953 6.9492 3.0781 10.699 2.4531 0.5-0.082031 1-0.19531 1.4883-0.33594 28.477-4.8398 55.852-14.758 80.82-29.281 13.688-8.1875 25.043-19.758 32.977-33.598 5.0508 2.1992 10.551 3.1797 16.055 2.8555 8.5703-0.38281 16.48-4.7266 21.395-11.762l17.195-25.078 101.55 83.711h0.003907c2.9297 2.4141 6.7031 3.5664 10.484 3.1992 3.7812-0.36719 7.2617-2.2227 9.6758-5.1562 0.27734-0.33594 0.52734-0.68359 0.76953-1.0312l58.977-85.992c3.0078-4.4023 3.3242-10.113 0.81641-14.82l-5.6172-12.227 81.301 46.621-311.7 179.95-311.79-180zm-43.059 149.77v243.37c0.023438 5.1211 2.7656 9.8477 7.1992 12.406l339.6 196.07c2.375 1.6016 5.1797 2.457 8.0469 2.457 2.8633 0 5.668-0.85547 8.043-2.457l338.75-195.55c2.4258-1.1797 4.4688-3.0195 5.9023-5.3047 1.4297-2.2852 2.1914-4.9258 2.1953-7.6211v-243.37l54-31.199c6.8516-3.9453 9.2148-12.691 5.2812-19.551l-60.707-105.14c-1.25-2.668-3.3008-4.8828-5.8672-6.3359l-137.86-79.043-26.219-57.047c1.4141-2.0078 2.8281-4.0312 4.2344-6.0703 0.22656-0.30078 0.45703-0.60156 0.67188-0.92578h0.003906c39.391-55.293 68.117-117.45 84.695-183.29 12.48-57.527 5.1836-103.68-24.793-125.11-0.61328-0.49219-1.2617-0.9375-1.9453-1.3281-30.719-20.219-76.391-10.367-125.58 22.031-55.379 39.102-102.98 88.195-140.35 144.75-0.16797 0.22656-0.32422 0.45703-0.48047 0.70703-1.4961 2.1836-2.9805 4.375-4.4531 6.5742l-126-7.8359v0.003906c-2.5234-0.19922-5.0586 0.26953-7.3438 1.3594-2.2852 1.0898-4.2422 2.7656-5.6758 4.8555l-58.633 85.488c-0.37109 0.49609-0.70703 1.0195-1.0078 1.5625-1.8477 3.3203-2.3086 7.2383-1.2773 10.898s3.4648 6.7656 6.7734 8.6367l86.617 48.777-216.64 125.05c-2.4336 1.3984-4.3984 3.4883-5.6523 6l-60.863 105.39c-3.9336 6.8555-1.5703 15.605 5.2812 19.547l54 31.199zm285.6 164.9-256.85-148.31v218.51l311.71 180 0.003906-314.73-34.5 59.773c-1.918 3.2773-5.0547 5.6641-8.7227 6.6445-3.6719 0.97656-7.5781 0.46484-10.875-1.4258z" fill="#fff" fill-rule="evenodd"/>
</svg>
