<?xml version="1.0" encoding="UTF-8"?>
<svg width="1200pt" height="1200pt" version="1.1" viewBox="0 0 1200 1200" xmlns="http://www.w3.org/2000/svg">
 <path d="m736.78 591.19c27.141-3.9375 47.625-27.562 47.625-55.031v-56.344c0-27.469-20.484-51.094-47.625-55.031l-35.906-5.25-8.6719-20.859 21.75-29.109c16.406-21.984 14.203-53.156-5.25-72.562l-39.891-39.891c-19.406-19.359-50.625-21.656-72.562-5.2031l-29.156 21.75-20.859-8.6719-5.25-36c-3.9375-27.141-27.609-47.578-55.031-47.578h-56.344c-27.469 0-51.094 20.484-55.031 47.578l-5.25 36-20.859 8.6719-29.109-21.75c-22.031-16.453-53.203-14.203-72.609 5.25l-39.797 39.891c-19.406 19.359-21.656 50.578-5.25 72.516l21.703 29.109-8.6719 20.859-35.906 5.25c-27.188 3.9375-47.625 27.609-47.625 55.031v56.344c0 27.469 20.484 51.094 47.625 55.031l35.953 5.25 8.6719 20.859-21.703 29.109c-16.453 21.984-14.203 53.203 5.25 72.562l39.797 39.844c19.406 19.453 50.625 21.703 72.562 5.25l29.297-21.844 20.719 8.5781 5.25 36.141c3.9375 27.141 27.562 47.625 55.031 47.625h56.344c27.375 0 51.047-20.438 55.031-47.625l5.25-36 20.859-8.6719 29.109 21.75c21.938 16.359 53.156 14.25 72.609-5.25l39.797-39.891c19.406-19.359 21.656-50.578 5.25-72.562l-21.75-29.109 8.6719-20.859 35.953-5.25zm-84.281 41.203 28.734 38.391c4.4062 5.9062 3.7969 13.969-1.4062 19.219l-39.797 39.891c-5.1094 5.0625-13.312 5.6719-19.219 1.3594l-38.438-28.688c-5.7188-4.3594-15-4.5469-21.703-1.8281l-40.734 16.875c-6.6562 2.7656-11.344 8.8125-12.375 15.938l-6.8906 47.484c-1.0781 7.1719-7.3125 12.609-14.531 12.609h-56.344c-7.2656 0-13.5-5.4375-14.531-12.609l-6.9375-47.672c-1.0312-7.125-5.7656-13.219-12.375-15.938l-42.234-17.531c-2.5312-1.0312-5.2031-1.5469-7.8281-1.5469-4.3125 0-8.6719 1.3594-12.234 4.0781l-38.625 28.781c-5.7188 4.3125-13.922 3.75-19.172-1.4062l-39.844-39.844c-5.1094-5.1094-5.6719-13.359-1.3125-19.219l28.641-38.438c4.3125-5.7656 4.5469-15.094 1.7812-21.703l-16.875-40.734c-2.7656-6.6094-8.8125-11.344-15.938-12.375l-47.484-6.8906c-7.1719-1.0312-12.609-7.3125-12.609-14.531v-56.344c0-7.2656 5.4375-13.5 12.609-14.531l47.438-6.8906c7.125-1.0312 13.172-5.7656 15.938-12.375l17.578-42.375c2.7188-6.6562 1.7812-14.297-2.4844-20.062l-28.641-38.438-0.046875-0.046875c-4.4062-5.9062-3.8438-13.922 1.4062-19.125l39.844-39.891c5.1094-5.1562 13.359-5.6719 19.172-1.4062l38.438 28.688c5.8125 4.3594 15.094 4.5469 21.703 1.8281l40.734-16.875c6.6094-2.7656 11.344-8.7656 12.375-15.891l6.9375-47.484c1.0312-7.1719 7.3125-12.609 14.531-12.609h56.344c7.2656 0 13.453 5.4375 14.531 12.609l6.8906 47.484c1.0312 7.125 5.7188 13.172 12.375 15.938l42.375 17.578c6.6562 2.7188 14.297 1.7812 20.062-2.5312l38.484-28.688c5.8125-4.3125 14.062-3.7031 19.125 1.3594l39.891 39.891c5.1094 5.1562 5.7188 13.359 1.4062 19.172l-28.734 38.438c-4.3125 5.8125-5.2969 13.406-2.4844 20.109l17.578 42.328c2.7656 6.6094 8.8125 11.344 15.938 12.375l47.438 6.8906c7.1719 1.0312 12.609 7.3125 12.609 14.531v56.344c0 7.2656-5.4375 13.5-12.609 14.531l-47.484 6.8906c-7.1719 1.0312-13.922 7.4531-16.688 14.109l-16.828 40.594c-2.8125 6.7031-1.8281 14.297 2.4844 20.109z" fill="#fff"/>
 <path d="m457.87 354c-84.891 0-153.98 69.094-153.98 153.98 0 84.938 69.094 153.98 153.98 153.98 84.938 0 153.98-69.094 153.98-153.98 0-84.938-69.094-153.98-153.98-153.98zm0 267.1c-62.344 0-113.11-50.766-113.11-113.11s50.766-113.11 113.11-113.11 113.11 50.766 113.11 113.11-50.766 113.11-113.11 113.11z" fill="#fff"/>
 <path d="m600.94 894.71h-407.68c-67.453 0-122.39-54.75-122.39-122.02v-529.4c0-67.266 54.938-122.02 122.39-122.02h529.36c67.312 0 122.06 54.75 122.06 122.02v315.98c0 11.297 9.1406 20.438 20.438 20.438 11.297 0 20.438-9.1406 20.438-20.438v-315.98c0-89.859-73.125-162.89-162.94-162.89l-529.36-0.046875c-90.047 0-163.26 73.078-163.26 162.89v529.36c0 89.859 73.219 162.89 163.26 162.89h407.68c11.297 0 20.438-9.1406 20.438-20.438s-9.1406-20.438-20.438-20.438z" fill="#fff"/>
 <path d="m1169.5 676.31c-1.875-14.672-9.375-27.656-21.094-36.656l-16.969-13.125 23.156-30c18.375-23.859 13.922-58.266-9.9375-76.688l-61.641-47.578c-23.812-18.422-58.266-13.969-76.734 9.9375l-325.31 421.78c-14.016 18.188-23.719 39.75-27.938 62.297l-24.469 129.1c-1.4062 7.5469 1.5469 15.281 7.6406 20.016 3.6094 2.8125 8.0625 4.2188 12.469 4.2188 3 0 6-0.65625 8.7656-1.9688l118.64-56.438c20.812-9.8906 39.188-24.703 53.156-42.891l277.22-359.39 16.969 13.125c3.0469 2.3438 4.9688 5.6719 5.4375 9.4688 0.51562 3.7969-0.51563 7.5469-2.9062 10.594l-95.109 123.32c-6.8906 8.9531-5.25 21.75 3.75 28.688 3.75 2.8594 8.1094 4.2188 12.469 4.2188 6.1406 0 12.188-2.7188 16.219-7.9688l95.062-123.28c9.0469-11.672 12.938-26.203 11.109-40.828zm-121.64-174.37c0.60938-0.09375 1.2188-0.09375 1.7812-0.09375 3.0469 0 5.9531 0.98438 8.4375 2.8594l61.641 47.578c2.9062 2.25 4.7812 5.4844 5.25 9.1406s-0.51562 7.2656-2.7656 10.172l-23.109 29.953-83.484-64.359 23.156-29.953c2.25-2.9062 5.4844-4.7812 9.1406-5.25zm-354.94 473.63 64.078 49.406-80.719 38.438zm103.92 17.812c-1.7344 2.25-4.0312 3.9844-5.9531 6.0938l-81.891-63.188c1.5469-2.3906 2.625-5.0625 4.3594-7.3125l277.26-359.44 83.438 64.359-277.22 359.44z" fill="#fff"/>
</svg>
