<?xml version="1.0" encoding="UTF-8"?>
<svg width="1200pt" height="1200pt" version="1.1" viewBox="0 0 1200 1200" xmlns="http://www.w3.org/2000/svg">
 <path d="m808.92 391.08c9.375 9.375 9.375 24.609 0 33.938l-72 72c-4.6875 4.5938-10.781 6.9844-16.922 6.9844s-12.234-2.3906-16.922-7.0781c-9.375-9.375-9.375-24.609 0-33.938l72-72c9.375-9.375 24.469-9.375 33.844 0.09375zm-384 417.84 72-72c9.375-9.375 9.375-24.609 0-33.938-9.375-9.375-24.609-9.375-33.938 0l-72 72c-9.375 9.375-9.375 24.609 0 33.938 4.7812 4.6875 10.875 7.0781 17.016 7.0781s12.234-2.3906 16.922-7.0781zm-33.844-384 72 72c4.6875 4.6875 10.781 7.0781 16.922 7.0781s12.234-2.3906 16.922-7.0781c9.375-9.375 9.375-24.609 0-33.938l-72-72c-9.375-9.375-24.609-9.375-33.938 0-9.375 9.4688-9.375 24.562 0.09375 33.938zm417.84 350.16-72-72c-9.375-9.375-24.609-9.375-33.938 0-9.375 9.375-9.375 24.609 0 33.938l72 72c4.7812 4.5938 10.875 6.9844 17.016 6.9844s12.234-2.3906 16.922-7.0781c9.4688-9.375 9.4688-24.469 0-33.844zm-376.92-511.08h336c13.219 0 24-10.781 24-24s-10.781-24-24-24h-336c-13.219 0-24 10.781-24 24s10.781 24 24 24zm336 672h-336c-13.219 0-24 10.781-24 24s10.781 24 24 24h336c13.219 0 24-10.781 24-24s-10.781-24-24-24zm216-168v-336c0-13.219-10.781-24-24-24s-24 10.781-24 24v336c0 13.219 10.781 24 24 24s24-10.781 24-24zm-768-336v336c0 13.219 10.781 24 24 24s24-10.781 24-24v-336c0-13.219-10.781-24-24-24s-24 10.781-24 24zm-71.297-48h190.45c26.859 0 48.703-21.844 48.703-48.703v-190.6c0.14062-26.859-21.703-48.703-48.562-48.703h-190.6c-26.859 0-48.703 21.844-48.703 48.703v190.45c0 27 21.844 48.844 48.703 48.844zm910.6-288h-190.6c-26.859 0-48.703 21.844-48.703 48.703v190.45c0 26.859 21.844 48.703 48.703 48.703h190.45c26.859 0 48.703-21.844 48.703-48.703v-190.45c0.14062-26.859-21.703-48.703-48.562-48.703zm-720 720h-190.6c-26.859 0-48.703 21.844-48.703 48.703v190.45c0 27 21.844 48.844 48.703 48.844h190.45c26.859 0 48.703-21.844 48.703-48.703v-190.6c0.14062-26.859-21.703-48.703-48.562-48.703zm720 0h-190.6c-26.859 0-48.703 21.844-48.703 48.703v190.45c0 26.859 21.844 48.703 48.703 48.703h190.45c26.859 0 48.703-21.844 48.703-48.703v-190.45c0.14062-26.859-21.703-48.703-48.562-48.703zm-455.29-336c-31.922 0-62.062 12.469-84.938 35.156-22.594 22.781-35.062 52.922-35.062 84.844s12.469 62.062 35.156 84.844c22.547 22.688 52.781 35.156 84.844 35.156s62.297-12.469 84.844-35.156c22.688-22.547 35.156-52.688 35.156-84.844s-12.469-62.297-35.156-84.938c-22.781-22.594-52.922-35.062-84.844-35.062z"/>
</svg>
