<?xml version="1.0" encoding="UTF-8"?>
<svg width="1200pt" height="1200pt" version="1.1" viewBox="0 0 1200 1200" xmlns="http://www.w3.org/2000/svg">
 <path d="m1000.8 624c2.3984-1.1992 3.6016-3.6016 4.8008-4.8008 1.1992-1.1992 3.6016-3.6016 4.8008-6l2.3984-2.3984 1.1992-3.6016c1.1992-2.3984 2.3984-4.8008 2.3984-7.1992 1.1992-2.3984 1.1992-4.8008 1.1992-7.1992 0-2.3984 1.1992-6 0-9.6016 0-3.6016 0-6-1.1992-8.3984 0-2.3984-1.1992-4.8008-2.3984-7.1992l-1.1992-2.3984-2.3984-3.6016c-1.1992-2.3984-3.6016-4.8008-4.8008-6-1.1992-2.3984-3.6016-3.6016-4.8008-6-1.1992-1.1992-3.6016-2.3984-4.8008-3.6016v-1.1992l-105.6-54 104.4-63.602c2.3984-1.1992 4.8008-3.6016 6-4.8008 2.3984-1.1992 3.6016-3.6016 4.8008-4.8008 1.1992-1.1992 3.6016-3.6016 4.8008-6l2.3984-2.3984 1.1992-3.6016c1.1992-2.3984 2.3984-4.8008 2.3984-7.1992 1.1992-2.3984 1.1992-4.8008 1.1992-7.1992 0-2.3984 1.1992-6 0-9.6016 0-3.6016 0-6-1.1992-8.3984 0-2.3984-1.1992-4.8008-2.3984-7.1992l-1.1992-2.3984-2.3984-3.6016c-1.1992-2.3984-3.6016-4.8008-4.8008-6-1.1992-2.3984-3.6016-3.6016-4.8008-6-1.1992-1.1992-3.6016-2.3984-4.8008-3.6016h0.003906l-381.6-196.8c-2.3984-1.1992-4.8008-2.3984-6-2.3984-2.3984-1.1992-4.8008-1.1992-6-2.3984-3.6016-1.1992-7.1992-1.1992-12-1.1992-2.3984 0-4.8008 0-6 1.1992-3.6016 0-6 1.1992-9.6016 2.3984l-2.3984 1.1992-3.6016 2.3984c-7.1992 3.6016-346.8 212.4-363.6 222-8.3984 4.8008-14.398 10.801-18 18-4.8008 9.6016-7.1992 20.398-4.8008 30v3.6016c1.1992 3.6016 2.3984 7.1992 3.6016 10.801l3.6016 8.3984 2.3984 2.3984c1.1992 1.1992 2.3984 2.3984 3.6016 3.6016 1.1992 1.1992 2.3984 2.3984 4.8008 3.6016l4.8008 3.6016c2.3984 1.1992 45.602 24 103.2 54-55.199 33.602-98.398 60-104.4 63.602-8.3984 4.8008-14.398 10.801-18 18-4.8008 9.6016-7.1992 19.199-4.8008 30v3.6016c1.1992 3.6016 2.3984 7.1992 3.6016 10.801l4.8008 8.3984 2.3984 2.3984c1.1992 1.1992 2.3984 2.3984 3.6016 3.6016 1.1992 1.1992 3.6016 3.6016 6 4.8008l3.6016 2.3984c1.1992 0 45.602 22.801 103.2 54-55.199 33.602-98.398 60-104.4 63.602-8.3984 4.8008-14.398 10.801-18 18-4.8008 9.6016-7.1992 19.199-4.8008 30v3.6016c1.1992 3.6016 2.3984 7.1992 3.6016 10.801l4.8008 8.3984 2.3984 1.1992c1.1992 2.3984 3.6016 3.6016 3.6016 3.6016l4.8008 4.8008 4.8008 3.6016c6 3.6016 375.6 193.2 380.4 195.6 2.3984 1.1992 3.6016 1.1992 6 2.3984 3.6016 1.1992 7.1992 2.3984 10.801 2.3984h4.8008c4.8008 0 9.6016-1.1992 14.398-2.3984l2.3984-1.1992c2.3984-1.1992 6-2.3984 8.3984-3.6016l362.4-222c2.3984-1.1992 4.8008-2.3984 6-3.6016 2.3984-1.1992 3.6016-2.3984 4.8008-4.8008 1.1992-2.3984 3.6016-3.6016 4.8008-6l2.3984-2.3984 1.1992-3.6016c1.1992-2.3984 2.3984-4.8008 2.3984-6 1.1992-2.3984 1.1992-4.8008 1.1992-7.1992s1.1992-6 0-9.6016c0-3.6016 0-6-1.1992-8.3984 0-2.3984-1.1992-4.8008-2.3984-7.1992l-1.1992-2.3984-2.3984-3.6016c-1.1992-2.3984-3.6016-4.8008-4.8008-6-1.1992-2.3984-3.6016-3.6016-4.8008-6-1.1992-1.1992-3.6016-2.3984-4.8008-3.6016v-2.4102l-105.6-54 104.4-63.602c2.4023-2.3984 4.8047-3.5977 6.0039-4.7969zm-408-420 354 182.4-339.6 207.6c-40.801-20.398-283.2-145.2-352.8-182.4 67.203-40.801 297.6-182.4 338.4-207.6zm354 584.4-339.6 207.6c-40.801-20.398-282-145.2-354-182.4 24-14.398 68.398-42 118.8-72 100.8 51.602 211.2 109.2 214.8 110.4 2.3984 1.1992 3.6016 1.1992 4.8008 2.3984 3.6016 1.1992 7.1992 2.3984 10.801 2.3984h3.6016 1.1992c4.8008 0 9.6016-1.1992 14.398-2.3984h1.1992l-9.6016-28.801 10.801 27.602c2.3984 0 6-1.1992 9.6016-3.6016l198-121.2zm-339.6 6c-40.801-20.398-283.2-145.2-352.8-181.2 24-14.398 68.398-42 117.6-72 100.8 51.602 212.4 109.2 214.8 110.4 2.3984 1.1992 3.6016 1.1992 4.8008 2.3984 3.6016 1.1992 7.1992 2.3984 10.801 2.3984h3.6016c4.8008 0 9.6016-1.1992 15.602-2.3984l2.3984-1.1992c2.3984 0 4.8008-1.1992 9.6016-3.6016l196.79-121.2 115.2 60z" fill="#fff"/>
</svg>
