<?xml version="1.0" encoding="UTF-8"?>
<svg width="100pt" height="100pt" version="1.1" viewBox="0 0 100 100" xmlns="http://www.w3.org/2000/svg">
 <g>
  <path d="m32.188 12.5h-11.875c-4.3164 0-7.8125 3.4961-7.8125 7.8125v11.875c0 1.207 0.98047 2.1875 2.1875 2.1875h3.4375c1.207 0 2.1875-0.98047 2.1875-2.1875v-11.875h11.875c1.207 0 2.1875-0.98047 2.1875-2.1875v-3.4375c0-1.207-0.98047-2.1875-2.1875-2.1875z"/>
  <path d="m32.188 79.688h-11.875v-11.875c0-1.207-0.98047-2.1875-2.1875-2.1875h-3.4375c-1.207 0-2.1875 0.98047-2.1875 2.1875v11.875c0 2.0703 0.82422 4.0586 2.2891 5.5234 1.4648 1.4648 3.4531 2.2891 5.5234 2.2891h11.875c1.207 0 2.1875-0.98047 2.1875-2.1875v-3.4375c0-1.207-0.98047-2.1875-2.1875-2.1875z"/>
  <path d="m85.312 64.844h-3.4375c-1.207 0-2.1875 0.98047-2.1875 2.1875v12.656h-11.875c-1.207 0-2.1875 0.98047-2.1875 2.1875v3.4375c0 1.207 0.98047 2.1875 2.1875 2.1875h11.875c2.0703 0 4.0586-0.82422 5.5234-2.2891 1.4648-1.4648 2.2891-3.4531 2.2891-5.5234v-12.656c0-1.207-0.98047-2.1875-2.1875-2.1875z"/>
  <path d="m79.688 12.5h-11.875c-1.207 0-2.1875 0.98047-2.1875 2.1875v3.4375c0 1.207 0.98047 2.1875 2.1875 2.1875h11.875v11.875c0 1.207 0.98047 2.1875 2.1875 2.1875h3.4375c1.207 0 2.1875-0.98047 2.1875-2.1875v-11.875c0-2.0703-0.82422-4.0586-2.2891-5.5234-1.4648-1.4648-3.4531-2.2891-5.5234-2.2891z"/>
  <path d="m35.938 32.812c-1.793 2.3594-2.3867 5.4219-1.6016 8.2812 0.71094 3.0469 0.78125 5.0781 0.24219 6.0469-0.125 0.22656-0.30469 0.53906-2.1328 0.53906h-1.2734c-0.60547 0-1.0938 0.48828-1.0938 1.0938v2.5c0.007813 0.59766 0.49609 1.0742 1.0938 1.0703h1.2656c1.8281 0 2.0078 0.3125 2.1328 0.53906 0.55469 0.96875 0.46875 3-0.24219 6.0469-0.77344 2.8516-0.17969 5.9023 1.6094 8.2578 1.5508 1.9805 3.9141 3.1562 6.4297 3.1953h1.25c0.60547 0 1.0938-0.48828 1.0938-1.0938v-2.5c0-0.60547-0.48828-1.0938-1.0938-1.0938h-1.25c-1.0859-0.042968-2.0938-0.5625-2.7578-1.4219-0.89453-1.2422-1.1562-2.832-0.71094-4.2969 0.69531-2.9688 1.2969-6.7266-0.24219-9.4375-0.11328-0.1875-0.23828-0.36719-0.375-0.53906 0.13672-0.17969 0.26172-0.36719 0.375-0.5625 1.5625-2.7109 0.9375-6.4688 0.24219-9.4375-0.44531-1.4648-0.18359-3.0547 0.71094-4.2969 0.66406-0.85938 1.6719-1.3789 2.7578-1.4219h1.25c0.60547 0 1.0938-0.48828 1.0938-1.0938v-2.5c0-0.60547-0.48828-1.0938-1.0938-1.0938h-1.25c-2.5195 0.042969-4.8828 1.2266-6.4297 3.2188z"/>
  <path d="m52.309 68.469 13.469-38.484c0.19922-0.57031 0.92969-0.83203 1.3945-0.67188l2.3594 0.82422c0.57031 0.19922 0.87109 0.82422 0.67188 1.3945l-13.469 38.484c-0.19922 0.57031-0.92969 0.83203-1.3945 0.67188l-2.3594-0.82422c-0.57031-0.19922-0.87109-0.82422-0.67188-1.3945z"/>
 </g>
</svg>
