<?xml version="1.0" encoding="UTF-8"?>
<svg width="1200pt" height="1200pt" version="1.1" viewBox="0 0 1200 1200" xmlns="http://www.w3.org/2000/svg">
 <path d="m355.45 895.45 219.1-219.1c14.062-14.062 36.844-14.062 50.906 0l219.1 219.1c14.062 14.062 14.062 36.844 0 50.906l-219.1 219.1c-14.062 14.062-36.844 14.062-50.906 0l-219.1-219.1c-14.062-14.062-14.062-36.844 0-50.906zm0-641.81 219.1-219.1c14.062-14.062 36.844-14.062 50.906 0l219.1 219.1c14.062 14.062 14.062 36.844 0 50.906l-219.1 219.1c-14.062 14.062-36.844 14.062-50.906 0l-219.1-219.1c-14.062-14.062-14.062-36.844 0-50.906zm168.19 320.9-219.1-219.1c-14.062-14.062-36.844-14.062-50.906 0l-219.1 219.1c-14.062 14.062-14.062 36.844 0 50.906l219.1 219.1c14.062 14.062 36.844 14.062 50.906 0l219.1-219.1c14.062-14.062 14.062-36.844 0-50.906zm-244.55 193.64-168.19-168.19 168.19-168.19 168.19 168.19zm886.36-193.64-219.1-219.1c-14.062-14.062-36.844-14.062-50.906 0l-219.1 219.1c-14.062 14.062-14.062 36.844 0 50.906l219.1 219.1c14.062 14.062 36.844 14.062 50.906 0l219.1-219.1c14.062-14.062 14.062-36.844 0-50.906zm-244.55 193.64-168.19-168.19 168.19-168.19 168.19 168.19z"/>
</svg>
