<svg width="176" height="106" viewBox="0 0 176 106" fill="none" xmlns="http://www.w3.org/2000/svg">
<rect width="176" height="106" rx="4" fill="white"/>
<rect x="8.41819" y="8.41819" width="159.164" height="26.4969" stroke="#736EEF" stroke-width="0.836388"/>
<rect x="8" y="35" width="27" height="50.6667" transform="rotate(-90 8 35)" fill="#736EEF" fill-opacity="0.15"/>
<rect x="62.6667" y="35" width="27" height="50.6667" transform="rotate(-90 62.6667 35)" fill="#736EEF" fill-opacity="0.15"/>
<rect x="117.333" y="35" width="27" height="50.6667" transform="rotate(-90 117.333 35)" fill="#736EEF" fill-opacity="0.15"/>
<rect x="8.41819" y="39.7514" width="159.164" height="26.4969" stroke="#736EEF" stroke-width="0.836388"/>
<rect x="8" y="66" width="26" height="50.6667" transform="rotate(-90 8 66)" fill="#736EEF" fill-opacity="0.15"/>
<rect x="62.6667" y="66" width="26" height="50.6667" transform="rotate(-90 62.6667 66)" fill="#736EEF" fill-opacity="0.15"/>
<rect x="117.333" y="66" width="26" height="50.6667" transform="rotate(-90 117.333 66)" fill="#736EEF" fill-opacity="0.15"/>
<rect x="8.41819" y="71.0849" width="159.164" height="26.4969" stroke="#736EEF" stroke-width="0.836388"/>
<rect x="8" y="97" width="26" height="50.6667" transform="rotate(-90 8 97)" fill="#736EEF" fill-opacity="0.15"/>
<rect x="62.6667" y="97" width="26" height="50.6667" transform="rotate(-90 62.6667 97)" fill="#736EEF" fill-opacity="0.15"/>
<rect x="117.333" y="97" width="26" height="50.6667" transform="rotate(-90 117.333 97)" fill="#736EEF" fill-opacity="0.15"/>
</svg>
