<svg width="61" height="16" viewBox="0 0 61 16" fill="none" xmlns="http://www.w3.org/2000/svg">
<path d="M31.7263 12.3653C32.3386 12.357 32.9481 12.2822 33.5438 12.1422L33.2567 10.3428C32.7554 10.4615 32.2418 10.5219 31.7263 10.5227C30.4032 10.5227 29.5453 9.97211 29.5453 8.40306L29.6035 5.18219H33.3257L33.3585 3.38282H29.658L29.7198 0.0215916H27.7206L27.5679 8.32749C27.5309 8.8757 27.6087 9.42557 27.7964 9.94264C27.984 10.4597 28.2775 10.9329 28.6584 11.3324C29.3781 12.0486 30.4432 12.3653 31.7263 12.3653Z" fill="#1B1B1B"/>
<path d="M22.9987 5.17499H26.5137L26.5465 3.36123H21.0067L20.8504 12.2789H22.8751L22.9987 5.17499Z" fill="#1B1B1B"/>
<path d="M48.6764 3.36123H50.6756L50.5193 12.2789H48.5201L48.6037 3.36482H48.6764V3.36123ZM48.7346 0L48.6982 2.0153H50.7011L50.7338 0H48.7346Z" fill="#1B1B1B"/>
<path d="M46.8407 10.188H44.7324L44.6961 12.2789H46.8044L46.8407 10.188Z" fill="#1B1B1B"/>
<path d="M14.58 12.4156C15.4529 12.4461 16.3067 12.1579 16.9791 11.6059H17.179V12.2789H19.2328L19.3928 3.36123H17.3172V4.01979H17.1536C16.4704 3.48048 15.621 3.18958 14.7472 3.19568C12.2645 3.15249 10.2035 4.79711 10.1526 7.72649C10.1017 10.6559 12.0973 12.4156 14.58 12.4156ZM12.2209 7.73728C12.2209 6.80521 12.6171 5.03824 14.8526 5.07782C16.692 5.10661 17.419 6.30858 17.3971 7.82725C17.3753 9.34592 16.6011 10.5155 14.7618 10.4867C12.5226 10.4543 12.2027 8.67296 12.2209 7.74449V7.73728Z" fill="#1B1B1B"/>
<path d="M4.89636 3.19209C4.02378 3.16402 3.17081 3.4519 2.49725 4.0018H2.29733V3.33243H0.225371L0 16H2.07196L2.14829 11.5879H2.3155C2.99884 12.127 3.84816 12.4179 4.72188 12.4121C7.20095 12.4552 9.262 10.807 9.31289 7.87764C9.36378 4.94827 7.37907 3.19209 4.89636 3.19209ZM7.25911 7.87045C7.24094 8.79892 6.85926 10.5695 4.62373 10.5299C2.78442 10.4975 2.05741 9.29915 2.07922 7.78048C2.10103 6.26181 2.87166 5.08862 4.71097 5.12101C6.95377 5.15699 7.27365 6.93837 7.25911 7.86685V7.87045Z" fill="#1B1B1B"/>
<path d="M38.382 12.4156C39.2483 12.4458 40.0952 12.1574 40.7593 11.6059H40.9811V12.2789H43.053L43.2093 3.36123H41.1374V4.01979H40.9702C40.2877 3.47918 39.4378 3.18811 38.5638 3.19568C36.0847 3.15249 34.0237 4.79711 33.9728 7.72649C33.9219 10.6559 35.8993 12.4156 38.382 12.4156ZM36.0193 7.73728C36.0193 6.80521 36.4191 5.03824 38.6547 5.07782C40.494 5.10661 41.221 6.30858 41.1992 7.82725C41.1774 9.34592 40.4031 10.5155 38.5638 10.4867C36.3174 10.4543 36.0047 8.67296 36.0193 7.74449V7.73728Z" fill="#1B1B1B"/>
<path d="M56.3099 12.4157C58.8544 12.4588 60.9482 10.8106 60.9991 7.88484C61.05 4.95907 59.0071 3.20648 56.4735 3.20648C53.929 3.1633 51.8388 4.81152 51.7843 7.7409C51.7298 10.6703 53.7654 12.4157 56.3099 12.4157ZM53.7872 7.73729C53.7872 6.78363 54.1871 4.96987 56.4408 5.00945C58.291 5.04184 59.0253 6.27261 58.9853 7.83086C58.9453 9.38912 58.1856 10.5911 56.3317 10.5587C54.0744 10.5083 53.7654 8.70896 53.7654 7.7409L53.7872 7.73729Z" fill="#1B1B1B"/>
</svg>
