<svg width="160" height="90" viewBox="0 0 160 90" fill="none" xmlns="http://www.w3.org/2000/svg">
  <rect x="0.5" y="0.5" width="159" height="89" stroke="#3D8BF4" />
  <rect width="5.66667" height="89" transform="translate(24 1)" fill="#3D8BF4" fill-opacity="0.1" />
  <g opacity="0.8">
    <rect width="5.66667" height="89" transform="translate(33.6667 1)" fill="#3D8BF4" fill-opacity="0.1" />
  </g>
  <rect width="5.66667" height="89" transform="translate(43.3333 1)" fill="#3D8BF4" fill-opacity="0.1" />
  <rect width="5.66667" height="89" transform="translate(53 1)" fill="#3D8BF4" fill-opacity="0.1" />
  <rect width="5.66667" height="89" transform="translate(62.6667 1)" fill="#3D8BF4" fill-opacity="0.1" />
  <rect width="5.66667" height="89" transform="translate(72.3333 1)" fill="#3D8BF4" fill-opacity="0.1" />
  <rect width="5.66667" height="89" transform="translate(82 1)" fill="#3D8BF4" fill-opacity="0.1" />
  <rect width="5.66667" height="89" transform="translate(91.6666 1)" fill="#3D8BF4" fill-opacity="0.1" />
  <rect width="5.66667" height="89" transform="translate(101.333 1)" fill="#3D8BF4" fill-opacity="0.1" />
  <rect width="5.66667" height="89" transform="translate(111 1)" fill="#3D8BF4" fill-opacity="0.1" />
  <rect width="5.66667" height="89" transform="translate(120.667 1)" fill="#3D8BF4" fill-opacity="0.1" />
  <rect width="5.66667" height="89" transform="translate(130.333 1)" fill="#3D8BF4" fill-opacity="0.1" />
  <rect x="24" y="7" width="112" height="41" fill="#3D8BF4" fill-opacity="0.3" />
  <rect x="24" y="52" width="54" height="32" fill="#3D8BF4" fill-opacity="0.3" />
  <rect x="82" y="52" width="54" height="32" fill="#3D8BF4" fill-opacity="0.3" />
</svg>