<svg width="160" height="90" viewBox="0 0 160 90" fill="none" xmlns="http://www.w3.org/2000/svg">
<rect x="0.5" y="0.5" width="159" height="89" stroke="#3D8BF4"/>
<rect width="4.83333" height="89" transform="translate(40 1)" fill="#3D8BF4" fill-opacity="0.1"/>
<g opacity="0.8">
<rect width="4.83333" height="89" transform="translate(46.8333 1)" fill="#3D8BF4" fill-opacity="0.1"/>
</g>
<rect width="4.83333" height="89" transform="translate(53.6667 1)" fill="#3D8BF4" fill-opacity="0.1"/>
<rect width="4.83333" height="89" transform="translate(60.5 1)" fill="#3D8BF4" fill-opacity="0.1"/>
<rect width="4.83333" height="89" transform="translate(67.3333 1)" fill="#3D8BF4" fill-opacity="0.1"/>
<rect width="4.83333" height="89" transform="translate(74.1667 1)" fill="#3D8BF4" fill-opacity="0.1"/>
<rect width="4.83333" height="89" transform="translate(81 1)" fill="#3D8BF4" fill-opacity="0.1"/>
<rect width="4.83333" height="89" transform="translate(87.8333 1)" fill="#3D8BF4" fill-opacity="0.1"/>
<rect width="4.83333" height="89" transform="translate(94.6667 1)" fill="#3D8BF4" fill-opacity="0.1"/>
<rect width="4.83333" height="89" transform="translate(101.5 1)" fill="#3D8BF4" fill-opacity="0.1"/>
<rect width="4.83333" height="89" transform="translate(108.333 1)" fill="#3D8BF4" fill-opacity="0.1"/>
<rect width="4.83333" height="89" transform="translate(115.167 1)" fill="#3D8BF4" fill-opacity="0.1"/>
<rect x="40" y="7" width="80" height="41" fill="#3D8BF4" fill-opacity="0.3"/>
<rect x="40" y="52" width="39" height="32" fill="#3D8BF4" fill-opacity="0.3"/>
<rect x="81" y="52" width="39" height="32" fill="#3D8BF4" fill-opacity="0.3"/>
</svg>
