<svg width="160" height="90" viewBox="0 0 160 90" fill="none" xmlns="http://www.w3.org/2000/svg">
  <rect x="0.5" y="0.5" width="159" height="89" stroke="#3D8BF4" />
  <rect width="7.66667" height="89" transform="translate(12 1)" fill="#3D8BF4" fill-opacity="0.1" />
  <rect width="7.66667" height="89" transform="translate(23.6667 1)" fill="#3D8BF4" fill-opacity="0.1" />
  <rect width="7.66667" height="89" transform="translate(35.3333 1)" fill="#3D8BF4" fill-opacity="0.1" />
  <rect width="7.66667" height="89" transform="translate(47 1)" fill="#3D8BF4" fill-opacity="0.1" />
  <rect width="7.66667" height="89" transform="translate(58.6667 1)" fill="#3D8BF4" fill-opacity="0.1" />
  <rect width="7.66667" height="89" transform="translate(70.3333 1)" fill="#3D8BF4" fill-opacity="0.1" />
  <rect width="7.66667" height="89" transform="translate(82 1)" fill="#3D8BF4" fill-opacity="0.1" />
  <rect width="7.66667" height="89" transform="translate(93.6667 1)" fill="#3D8BF4" fill-opacity="0.1" />
  <rect width="7.66667" height="89" transform="translate(105.333 1)" fill="#3D8BF4" fill-opacity="0.1" />
  <rect width="7.66667" height="89" transform="translate(117 1)" fill="#3D8BF4" fill-opacity="0.1" />
  <rect width="7.66667" height="89" transform="translate(128.667 1)" fill="#3D8BF4" fill-opacity="0.1" />
  <rect width="7.66667" height="89" transform="translate(140.333 1)" fill="#3D8BF4" fill-opacity="0.1" />
  <rect x="12" y="52" width="66" height="32" fill="#3D8BF4" fill-opacity="0.3" />
  <rect x="82" y="52" width="66" height="32" fill="#3D8BF4" fill-opacity="0.3" />
  <rect x="12" y="7" width="136" height="41" fill="#3D8BF4" fill-opacity="0.3" />
</svg>