<svg width="40" height="40" viewBox="0 0 40 40" fill="none" xmlns="http://www.w3.org/2000/svg">
<path fill-rule="evenodd" clip-rule="evenodd" d="M26.2131 18.0808H13.7869C12.7996 18.0808 12 17.2812 12 16.2939V9.14629C12 8.15902 12.7996 7.35938 13.7869 7.35938H26.2131C27.2004 7.35938 28 8.15902 28 9.14629V16.2939C28 17.2812 27.1995 18.0808 26.2131 18.0808Z" stroke="#757575" stroke-linecap="round" stroke-linejoin="round"/>
<path d="M14 7C14 5.895 14.744 5 15.6626 5H24.3374C25.256 5 26 5.895 26 7" stroke="#757575" stroke-linecap="round" stroke-linejoin="round"/>
<path fill-rule="evenodd" clip-rule="evenodd" d="M16.7689 31.9129H4.73107C3.77465 31.9129 3 31.1132 3 30.126V22.9783C3 21.991 3.77465 21.1914 4.73107 21.1914H16.7689C17.7253 21.1914 18.5 21.991 18.5 22.9783V30.126C18.5 31.1132 17.7245 31.9129 16.7689 31.9129Z" stroke="#757575" stroke-linecap="round" stroke-linejoin="round"/>
<path fill-rule="evenodd" clip-rule="evenodd" d="M35.2689 31.9129H23.2311C22.2747 31.9129 21.5 31.1132 21.5 30.126V22.9783C21.5 21.991 22.2747 21.1914 23.2311 21.1914H35.2689C36.2253 21.1914 37 21.991 37 22.9783V30.126C37 31.1132 36.2245 31.9129 35.2689 31.9129Z" stroke="#757575" stroke-linecap="round" stroke-linejoin="round"/>
</svg>
